<svg xmlns="http://www.w3.org/2000/svg" viewBox="0 0 24 24" width="24" height="24" role="img" aria-label="Region noise fill battery">
  <rect x="2.5" y="2.5" width="19" height="19" rx="5" fill="#10211d" stroke="#4f6f63" stroke-width="1.2"/>
  <rect x="6" y="6" width="3" height="3" fill="#95aa9f"/>
  <rect x="9" y="6" width="3" height="3" fill="#10211d"/>
  <rect x="12" y="6" width="3" height="3" fill="#95aa9f"/>
  <rect x="15" y="6" width="3" height="3" fill="#b7ff5a"/>
  <rect x="6" y="9" width="3" height="3" fill="#10211d"/>
  <rect x="9" y="9" width="3" height="3" fill="#95aa9f"/>
  <rect x="12" y="9" width="3" height="3" fill="#10211d"/>
  <rect x="15" y="9" width="3" height="3" fill="#95aa9f"/>
  <rect x="6" y="12" width="3" height="3" fill="#95aa9f"/>
  <rect x="9" y="12" width="3" height="3" fill="#10211d"/>
  <rect x="12" y="12" width="3" height="3" fill="#95aa9f"/>
  <rect x="15" y="12" width="3" height="3" fill="#10211d"/>
  <rect x="6" y="15" width="3" height="3" fill="#10211d"/>
  <rect x="9" y="15" width="3" height="3" fill="#95aa9f"/>
  <rect x="12" y="15" width="3" height="3" fill="#10211d"/>
  <rect x="15" y="15" width="3" height="3" fill="#95aa9f"/>
</svg>
