<svg xmlns="http://www.w3.org/2000/svg" viewBox="0 0 24 24" width="24" height="24">
  <defs>
    <linearGradient id="bg_connectivity_to_multivalue" x1="0" y1="0" x2="1" y2="1">
      <stop offset="0%" stop-color="#6366f1"/>
      <stop offset="100%" stop-color="#7f81f3"/>
    </linearGradient>
  </defs>
  <rect width="24" height="24" rx="4" ry="4" fill="url(#bg_connectivity_to_multivalue)"/>

  <path fill="#fff" d="M2 2v20h20v-20h-20zM4 4h4v4h-4v-4zM16 4h4v4h-4v-4zM4 16h4v4h-4v-4zM16 16h4v4h-4v-4z"/>
  <path fill="rgba(0,0,0,0.55)" d="M8 8h4v4h-4v-4zM12 12h4v4h-4v-4zM8 16h4v4h-4v-4zM16 8h4v4h-4v-4zM4 8h4v4h-4v-4zM4 12h4v4h-4v-4zM12 4h4v4h-4v-4z"/>

</svg>