<svg xmlns="http://www.w3.org/2000/svg" viewBox="0 0 24 24" width="24" height="24">
  <defs>
    <linearGradient id="bg_grid_binarize" x1="0" y1="0" x2="1" y2="1">
      <stop offset="0%" stop-color="#be185d"/>
      <stop offset="100%" stop-color="#c9417a"/>
    </linearGradient>
  </defs>
  <rect width="24" height="24" rx="4" ry="4" fill="url(#bg_grid_binarize)"/>

  <rect x="3" y="3" width="4" height="4" fill="#fff"/>
  <rect x="7" y="3" width="4" height="4" fill="rgba(0,0,0,0.55)"/>
  <rect x="11" y="3" width="4" height="4" fill="#fff"/>
  <rect x="15" y="3" width="4" height="4" fill="rgba(0,0,0,0.55)"/>
  <rect x="19" y="3" width="2" height="4" fill="#fff"/>
  <rect x="3" y="7" width="4" height="4" fill="rgba(0,0,0,0.55)"/>
  <rect x="7" y="7" width="4" height="4" fill="#fff"/>
  <rect x="11" y="7" width="4" height="4" fill="rgba(0,0,0,0.55)"/>
  <rect x="15" y="7" width="4" height="4" fill="#fff"/>
  <rect x="19" y="7" width="2" height="4" fill="rgba(0,0,0,0.55)"/>
  <rect x="3" y="11" width="4" height="4" fill="#fff"/>
  <rect x="7" y="11" width="4" height="4" fill="rgba(0,0,0,0.55)"/>
  <rect x="11" y="11" width="4" height="4" fill="#fff"/>
  <rect x="15" y="11" width="4" height="4" fill="rgba(0,0,0,0.55)"/>
  <rect x="19" y="11" width="2" height="4" fill="#fff"/>
  <rect x="3" y="15" width="4" height="4" fill="rgba(0,0,0,0.55)"/>
  <rect x="7" y="15" width="4" height="4" fill="#fff"/>
  <rect x="11" y="15" width="4" height="4" fill="rgba(0,0,0,0.55)"/>
  <rect x="15" y="15" width="4" height="4" fill="#fff"/>
  <rect x="19" y="15" width="2" height="4" fill="rgba(0,0,0,0.55)"/>
  <rect x="3" y="19" width="4" height="2" fill="#fff"/>
  <rect x="7" y="19" width="4" height="2" fill="rgba(0,0,0,0.55)"/>
  <rect x="11" y="19" width="4" height="2" fill="#fff"/>
  <rect x="15" y="19" width="4" height="2" fill="rgba(0,0,0,0.55)"/>
  <rect x="19" y="19" width="2" height="2" fill="#fff"/>
  <path d="M3,3 L21,21" stroke="rgba(255,255,255,0.35)" stroke-width="1"/>

</svg>