<svg xmlns="http://www.w3.org/2000/svg" viewBox="0 0 24 24" width="24" height="24">
  <defs>
    <linearGradient id="bg_dla_aggregation" x1="0" y1="0" x2="1" y2="1">
      <stop offset="0%" stop-color="#0369a1"/>
      <stop offset="100%" stop-color="#3084b1"/>
    </linearGradient>
  </defs>
  <rect width="24" height="24" rx="4" ry="4" fill="url(#bg_dla_aggregation)"/>

  <path fill="#fff" d="M12 4v2.5c0.5 0 1 1.5 1 2.5h-2c0-1-0.5-1.5-1-2.5V4c0.5 0 1 0.5 1 0.5S11.5 4 12 4z"/>
  <path fill="#fff" d="M12 19.5v-2.5c-0.5 0-1-1.5-1-2.5h2c0 1 0.5 1.5 1 2.5v2.5c-0.5 0-1-0.5-1-0.5S12.5 20 12 19.5z"/>
  <path fill="#fff" d="M4.5 12h2.5c0-0.5 1.5-1 2.5-1v2c-1 0-1.5 0.5-2.5 1h-2.5c0-0.5-0.5-1-0.5-1S4 12.5 4.5 12z"/>
  <path fill="#fff" d="M19.5 12h-2.5c0 0.5-1.5 1-2.5 1v-2c1 0 1.5-0.5 2.5-1h2.5c0 0.5 0.5 1 0.5 1S20 11.5 19.5 12z"/>
  <path fill="#fff" d="M7 7l1.4-1.4c0.7 0.7 1.3 1.3 2 2V4.6c-0.7-0.7-1.3-1.3-2-2L7 3c-0.7 0.7-1.3 1.3-2 2v2c0.7 0.7 1.3 1.3 2 2z"/>
  <path fill="#fff" d="M17 17l-1.4 1.4c-0.7-0.7-1.3-1.3-2-2v2c0.7 0.7 1.3 1.3 2 2L17 21c0.7-0.7 1.3-1.3 2-2v-2c-0.7-0.7-1.3-1.3-2-2z"/>
  <path fill="#fff" d="M7 17l1.4 1.4c0.7-0.7 1.3-1.3 2-2v2c-0.7 0.7-1.3 1.3-2 2L7 21c-0.7-0.7-1.3-1.3-2-2v-2c0.7 0.7 1.3 1.3 2 2z"/>
  <path fill="#fff" d="M17 7l-1.4-1.4c-0.7 0.7-1.3 1.3-2 2V4.6c0.7-0.7 1.3-1.3 2-2L17 3c0.7 0.7 1.3 1.3 2 2v2c-0.7 0.7-1.3 1.3-2 2z"/>

</svg>