<svg xmlns="http://www.w3.org/2000/svg" viewBox="0 0 24 24" width="24" height="24">
  <defs>
    <linearGradient id="bg_rts_base_shape_poisson" x1="0" y1="0" x2="1" y2="1">
      <stop offset="0%" stop-color="#7c3aed"/>
      <stop offset="100%" stop-color="#935df0"/>
    </linearGradient>
  </defs>
  <rect width="24" height="24" rx="4" ry="4" fill="url(#bg_rts_base_shape_poisson)"/>

  <path d="M2 2H22V22H2V2Z" fill="rgba(0,0,0,0.55)"/>
  <path d="M5 5H7V7H5V5Z" fill="#fff"/>
  <path d="M9 5H11V7H9V5Z" fill="#fff"/>
  <path d="M13 5H15V7H13V5Z" fill="#fff"/>
  <path d="M17 5H19V7H17V5Z" fill="#fff"/>
  <path d="M5 9H7V11H5V9Z" fill="#fff"/>
  <path d="M9 9H11V11H9V9Z" fill="#fff"/>
  <path d="M13 9H15V11H13V9Z" fill="#fff"/>
  <path d="M17 9H19V11H17V9Z" fill="#fff"/>
  <path d="M5 13H7V15H5V13Z" fill="#fff"/>
  <path d="M9 13H11V15H9V13Z" fill="#fff"/>
  <path d="M13 13H15V15H13V13Z" fill="#fff"/>
  <path d="M17 13H19V15H17V13Z" fill="#fff"/>
  <path d="M5 17H7V19H5V17Z" fill="#fff"/>
  <path d="M9 17H11V19H9V17Z" fill="#fff"/>
  <path d="M13 17H15V19H13V17Z" fill="#fff"/>
  <path d="M17 17H19V19H17V17Z" fill="#fff"/>

</svg>