<svg xmlns="http://www.w3.org/2000/svg" viewBox="0 0 24 24" width="24" height="24">
  <defs>
    <linearGradient id="bg_islands_path_generate" x1="0" y1="0" x2="1" y2="1">
      <stop offset="0%" stop-color="#d97706"/>
      <stop offset="100%" stop-color="#df8f32"/>
    </linearGradient>
  </defs>
  <rect width="24" height="24" rx="4" ry="4" fill="url(#bg_islands_path_generate)"/>

  <path fill="#fff" d="M3 17c0 1.1.9 2 2 2h14c1.1 0 2-.9 2-2v-6c0-1.1-.9-2-2-2H5c-1.1 0-2 .9-2 2v6z"/>
  <path fill="rgba(0,0,0,0.55)" d="M3 11c0-1.1.9-2 2-2h14c1.1 0 2 .9 2 2v2H3v-2z"/>
  <path fill="#fff" d="M5 13c-1.1 0-2 .9-2 2v4c0 1.1.9 2 2 2h14c1.1 0 2-.9 2-2v-4c0-1.1-.9-2-2-2H5z"/>
  <path fill="rgba(255,255,255,0.35)" d="M5 15h14v2H5z"/>
  <path fill="#fff" d="M5 7c-1.1 0-2 .9-2 2v2c0 1.1.9 2 2 2h14c1.1 0 2-.9 2-2V9c0-1.1-.9-2-2-2H5z"/>
  <path fill="rgba(0,0,0,0.55)" d="M5 9h14v2H5z"/>

</svg>