<svg xmlns="http://www.w3.org/2000/svg" viewBox="0 0 24 24" width="24" height="24">
  <defs>
    <linearGradient id="bg_furniture_placer" x1="0" y1="0" x2="1" y2="1">
      <stop offset="0%" stop-color="#16a34a"/>
      <stop offset="100%" stop-color="#3fb36a"/>
    </linearGradient>
  </defs>
  <rect width="24" height="24" rx="4" ry="4" fill="url(#bg_furniture_placer)"/>

  <path fill="#fff" d="M3 3h18v18H3z"/>
  <path fill="rgba(0,0,0,0.55)" d="M4 4h16v16H4z"/>
  <rect x="5" y="5" width="4" height="2" fill="#fff"/>
  <rect x="5" y="8" width="2" height="3" fill="#fff"/>
  <rect x="5" y="12" width="3" height="2" fill="#fff"/>
  <rect x="17" y="5" width="2" height="4" fill="#fff"/>
  <rect x="14" y="16" width="4" height="2" fill="#fff"/>
  <rect x="10" y="9" width="4" height="4" fill="#fff"/>
  <path d="M3 18.5c0-.3.1-.5.3-.7l4-4c.2-.2.5-.2.7 0 .2.2.2.5 0 .7l-4 4c-.2.2-.4.3-.7.1z" fill="#fff"/>
  <path d="M7.3 13.8l.7-.7 2.9 2.9-.7.7z" fill="rgba(255,255,255,0.35)"/>

</svg>