<svg xmlns="http://www.w3.org/2000/svg" viewBox="0 0 24 24" width="24" height="24">
  <defs>
    <linearGradient id="bg_lake_gen" x1="0" y1="0" x2="1" y2="1">
      <stop offset="0%" stop-color="#c2410c"/>
      <stop offset="100%" stop-color="#cc6337"/>
    </linearGradient>
  </defs>
  <rect width="24" height="24" rx="4" ry="4" fill="url(#bg_lake_gen)"/>

  <path fill="#fff" d="M12,3 C7.5,3 4,6.5 4,11 C4,15.5 7.5,19 12,19 C16.5,19 20,15.5 20,11 C20,6.5 16.5,3 12,3 Z M12,17 C9,17 6.5,14.5 6.5,11 C6.5,7.5 9,5 12,5 C15,5 17.5,7.5 17.5,11 C17.5,14.5 15,17 12,17 Z"/>
  <path fill="rgba(0,0,0,0.55)" d="M5,13 C5,14.7 6.3,16 8,16 C9.7,16 11,14.7 11,13 C11,11.3 9.7,10 8,10 C6.3,10 5,11.3 5,13 Z"/>

</svg>