<svg xmlns="http://www.w3.org/2000/svg" viewBox="0 0 24 24" width="24" height="24">
  <defs>
    <linearGradient id="bg_cosmos_object_placer" x1="0" y1="0" x2="1" y2="1">
      <stop offset="0%" stop-color="#a16207"/>
      <stop offset="100%" stop-color="#b17e33"/>
    </linearGradient>
  </defs>
  <rect width="24" height="24" rx="4" ry="4" fill="url(#bg_cosmos_object_placer)"/>

  <path fill="#fff" d="M12 2 L2 7 L2 17 L12 22 L22 17 L22 7 Z M12 19.2 L4 14.7 V8.3 L12 12.8 L20 8.3 V14.7 Z"/>
  <path fill="rgba(0,0,0,0.55)" d="M15 7 L17 7 L17 9 L15 9 Z M7 15 L9 15 L9 17 L7 17 Z"/>
  <path fill="#fff" d="M7 7 L9 7 L9 9 L7 9 Z M15 15 L17 15 L17 17 L15 17 Z"/>

</svg>