<svg xmlns="http://www.w3.org/2000/svg" viewBox="0 0 24 24" width="24" height="24">
  <defs>
    <linearGradient id="bg_LLM" x1="0" y1="0" x2="1" y2="1">
      <stop offset="0%" stop-color="#6366f1"/>
      <stop offset="100%" stop-color="#818cf8"/>
    </linearGradient>
  </defs>
  <rect width="24" height="24" rx="4" ry="4" fill="url(#bg_LLM)"/>

  
  

  
  

  
  

  <path fill="#fff" d="M12 4a3 3 0 0 1 3 3v1a1 1 0 0 1-2 0V7a1 1 0 0 0-2 0v1a1 1 0 0 1-2 0V7a3 3 0 0 1 3-3zM7 8h10v8H7z"/>
  <path fill="rgba(0,0,0,0.55)" d="M12 16a4 4 0 0 1-4-4H4v6h16v-6h-4a4 4 0 0 1-4 4z"/>
  <path fill="#fff" d="M16 17a1 1 0 0 1 1 1v2a1 1 0 0 1-1 1h-8a1 1 0 0 1-1-1v-2a1 1 0 0 1 1-1h8z"/>
  <path fill="rgba(255,255,255,0.35)" d="M10 18h4v1h-4z"/>
  <path fill="#fff" d="M18 12a4 4 0 0 0 2-3V6a4 4 0 0 0-4-4H8a4 4 0 0 0-4 4v3a4 4 0 0 0 2 3H6v1a5 5 0 0 0 12 0v-1h-2z"/>




</svg>