<svg xmlns="http://www.w3.org/2000/svg" viewBox="0 0 24 24" width="24" height="24">
  <defs>
    <linearGradient id="bg_rule_indoor_contour_corridor" x1="0" y1="0" x2="1" y2="1">
      <stop offset="0%" stop-color="#c2410c"/>
      <stop offset="100%" stop-color="#cc6337"/>
    </linearGradient>
  </defs>
  <rect width="24" height="24" rx="4" ry="4" fill="url(#bg_rule_indoor_contour_corridor)"/>

  <path fill="rgba(0,0,0,0.55)" d="M12,3 C7,3 3,7 3,12 C3,17 7,21 12,21 C17,21 21,17 21,12 C21,7 17,3 12,3 Z M12,4 C16.4,4 20,7.6 20,12 C20,16.4 16.4,20 12,20 C7.6,20 4,16.4 4,12 C4,7.6 7.6,4 12,4 Z"/>
  <path fill="#fff" d="M12,7 C9.2,7 7,9.2 7,12 C7,14.8 9.2,17 12,17 C14.8,17 17,14.8 17,12 C17,9.2 14.8,7 12,7 Z M12,8 C14.3,8 16,9.7 16,12 C16,14.3 14.3,16 12,16 C9.7,16 8,14.3 8,12 C8,9.7 9.7,8 12,8 Z"/>
  <path fill="rgba(0,0,0,0.55)" d="M12,9 C10.3,9 9,10.3 9,12 C9,13.7 10.3,15 12,15 C13.7,15 15,13.7 15,12 C15,10.3 13.7,9 12,9 Z M12,10 C13.2,10 14,10.8 14,12 C14,13.2 13.2,14 12,14 C10.8,14 10,13.2 10,12 C10,10.8 10.8,10 12,10 Z"/>

</svg>