<svg xmlns="http://www.w3.org/2000/svg" viewBox="0 0 24 24" width="24" height="24">
  <defs>
    <linearGradient id="bg_town_island_layout" x1="0" y1="0" x2="1" y2="1">
      <stop offset="0%" stop-color="#0369a1"/>
      <stop offset="100%" stop-color="#3084b1"/>
    </linearGradient>
  </defs>
  <rect width="24" height="24" rx="4" ry="4" fill="url(#bg_town_island_layout)"/>

  <path fill="#fff" d="M12,3 C7.5,3 4,6.5 4,11 C4,15.5 7.5,19 12,19 C16.5,19 20,15.5 20,11 C20,6.5 16.5,3 12,3 Z M12,4 C15.9,4 19,7.1 19,11 C19,14.9 15.9,18 12,18 C8.1,18 5,14.9 5,11 C5,7.1 8.1,4 12,4 Z"/>
  <rect x="7" y="7" width="2" height="2" fill="rgba(0,0,0,0.55)"/>
  <rect x="10" y="7" width="2" height="2" fill="rgba(0,0,0,0.55)"/>
  <rect x="13" y="7" width="2" height="2" fill="rgba(0,0,0,0.55)"/>
  <rect x="7" y="10" width="2" height="2" fill="rgba(0,0,0,0.55)"/>
  <rect x="10" y="10" width="2" height="2" fill="rgba(0,0,0,0.55)"/>
  <rect x="13" y="10" width="2" height="2" fill="rgba(0,0,0,0.55)"/>
  <rect x="7" y="13" width="2" height="2" fill="rgba(0,0,0,0.55)"/>
  <rect x="10" y="13" width="2" height="2" fill="rgba(0,0,0,0.55)"/>
  <rect x="13" y="13" width="2" height="2" fill="rgba(0,0,0,0.55)"/>

</svg>