<svg xmlns="http://www.w3.org/2000/svg" viewBox="0 0 24 24" width="24" height="24">
  <defs>
    <linearGradient id="bg_furniture_stamp" x1="0" y1="0" x2="1" y2="1">
      <stop offset="0%" stop-color="#6366f1"/>
      <stop offset="100%" stop-color="#7f81f3"/>
    </linearGradient>
  </defs>
  <rect width="24" height="24" rx="4" ry="4" fill="url(#bg_furniture_stamp)"/>

  <path fill="#fff" d="M3 3h18v18H3zM5 5h14v14H5z" />
  <path fill="rgba(0,0,0,0.55)" d="M5 5h1v1H5zM18 5h1v1h-1zM5 18h1v1H5zM18 18h1v1h-1z"/>
  <path fill="#fff" d="M7 4l3 4 4-4 3 4-3-4"/>
  <path fill="#fff" d="M7 20l3-4 4 4 3-4-3 4"/>
  <path fill="#fff" d="M4 7l4 3-4 3 4-3-4-3"/>
  <path fill="#fff" d="M20 7l-4 3 4 3-4-3 4-3"/>
  <path fill="#fff" d="M7 7h10v10H7z"/>
  <path fill="rgba(0,0,0,0.55)" d="M15 3l-3 3-3-3"/>
  <path fill="rgba(0,0,0,0.55)" d="M15 21l-3-3-3 3"/>
  <path fill="rgba(0,0,0,0.55)" d="M3 15l3-3-3-3"/>
  <path fill="rgba(0,0,0,0.55)" d="M21 15l-3-3 3-3"/>

</svg>