<svg xmlns="http://www.w3.org/2000/svg" viewBox="0 0 24 24" width="24" height="24">
  <defs>
    <linearGradient id="bg_gen_bleeding_forest" x1="0" y1="0" x2="1" y2="1">
      <stop offset="0%" stop-color="#6366f1"/>
      <stop offset="100%" stop-color="#7f81f3"/>
    </linearGradient>
  </defs>
  <rect width="24" height="24" rx="4" ry="4" fill="url(#bg_gen_bleeding_forest)"/>

  <path fill="#fff" d="M3 18c0 1.1.9 2 2 2h14c1.1 0 2-.9 2-2v-2H3v2z"/>
  <path fill="rgba(0,0,0,0.55)" d="M3 6c0-1.1.9-2 2-2h14c1.1 0 2 .9 2 2v2H3V6z"/>
  <circle cx="7" cy="12" r="1.5" fill="#fff"/>
  <circle cx="12" cy="12" r="1.5" fill="#fff"/>
  <circle cx="17" cy="12" r="1.5" fill="#fff"/>
  <path fill="rgba(255,255,255,0.35)" d="M5 16h14v1H5z"/>

</svg>