<svg xmlns="http://www.w3.org/2000/svg" viewBox="0 0 24 24" width="24" height="24">
  <defs>
    <linearGradient id="bg_track_mesh_rasterize" x1="0" y1="0" x2="1" y2="1">
      <stop offset="0%" stop-color="#9333ea"/>
      <stop offset="100%" stop-color="#a657ed"/>
    </linearGradient>
  </defs>
  <rect width="24" height="24" rx="4" ry="4" fill="url(#bg_track_mesh_rasterize)"/>

  <path fill="#fff" d="M12 4c-4.4 0-8 3.6-8 8s3.6 8 8 8 8-3.6 8-8-3.6-8-8-8zm0 14c-3.3 0-6-2.7-6-6s2.7-6 6-6 6 2.7 6 6-2.7 6-6 6z"/>
  <rect fill="rgba(0,0,0,0.55)" x="11" y="4" width="2" height="16" rx="1"/>
  <rect fill="rgba(0,0,0,0.55)" x="4" y="11" width="16" height="2" rx="1"/>

</svg>