<svg xmlns="http://www.w3.org/2000/svg" viewBox="0 0 24 24" width="24" height="24">
  <defs>
    <linearGradient id="bg_islands_resource_scatter" x1="0" y1="0" x2="1" y2="1">
      <stop offset="0%" stop-color="#d97706"/>
      <stop offset="100%" stop-color="#df8f32"/>
    </linearGradient>
  </defs>
  <rect width="24" height="24" rx="4" ry="4" fill="url(#bg_islands_resource_scatter)"/>

  <path fill="#fff" d="M12,2 L2,12 L4,14 L12,6 L20,14 L22,12 L12,2 Z M6,14 L8,16 L10,14 L12,16 L14,14 L16,16 L18,14 L16,12 L14,14 L12,12 L10,14 L8,12 L6,14 Z"/>
  <circle cx="8" cy="8" r="1.5" fill="rgba(0,0,0,0.55)"/>
  <circle cx="16" cy="8" r="1.5" fill="#fff"/>
  <path fill="rgba(0,0,0,0.55)" d="M18,18 C18,20 16,21 12,21 C8,21 6,20 6,18 C6,16 12,13 12,13 C12,13 18,16 18,18 Z"/>

</svg>