<svg xmlns="http://www.w3.org/2000/svg" viewBox="0 0 24 24" width="24" height="24">
  <defs>
    <linearGradient id="bg_complex_indoor_verify" x1="0" y1="0" x2="1" y2="1">
      <stop offset="0%" stop-color="#b45309"/>
      <stop offset="100%" stop-color="#c17135"/>
    </linearGradient>
  </defs>
  <rect width="24" height="24" rx="4" ry="4" fill="url(#bg_complex_indoor_verify)"/>

  <path fill="rgba(0,0,0,0.55)" d="M3 3h5v5H3zM16 3h5v5h-5zM3 16h5v5H3zM16 16h5v5h-5z"/>
  <path fill="#fff" d="M4 4h3v3H4zM17 4h3v3h-3zM4 17h3v3H4zM17 17h3v3h-3z"/>
  <path fill="rgba(0,0,0,0.55)" stroke-dasharray="3,3" d="M7 6.5h9.5M6.5 7v9.5M17.5 7v9.5M7 17.5h9.5"/>
  <path fill="#fff" d="M10 10.5l2 2 3-3 1 1-4 4-4-4 1-1z"/>

</svg>