<svg xmlns="http://www.w3.org/2000/svg" viewBox="0 0 24 24" width="24" height="24">
  <defs>
    <linearGradient id="bg_aw_river_gen" x1="0" y1="0" x2="1" y2="1">
      <stop offset="0%" stop-color="#0f766e"/>
      <stop offset="100%" stop-color="#3a8e88"/>
    </linearGradient>
  </defs>
  <rect width="24" height="24" rx="4" ry="4" fill="url(#bg_aw_river_gen)"/>

  <path fill="#fff" d="M2 12c0 0.6 0.4 1 1 1s1-0.4 1-1c0-0.6-0.4-1-1-1S2 11.4 2 12zM22 12c0 0.6-0.4 1-1 1s-1-0.4-1-1c0-0.6 0.4-1 1-1S22 11.4 22 12z"/>
  <path fill="rgba(0,0,0,0.55)" d="M12 5c-0.3 0-0.5 0.1-0.7 0.3L3 11c-0.4 0.4-0.4 1 0 1.4s1 0.4 1.4 0l8.3-5.7c0.4-0.3 0.9-0.3 1.3 0l8.3 5.7c0.4 0.4 1 0.4 1.4 0s0.4-1 0-1.4l-8.3-5.7C12.5 5.1 12.3 5 12 5z"/>
  <path fill="#fff" d="M12 6c-0.3 0-0.5 0.1-0.7 0.3L3 12c-0.4 0.4-0.4 1 0 1.4s1 0.4 1.4 0l8.3-5.7c0.4-0.3 0.9-0.3 1.3 0l8.3 5.7c0.4 0.4 1 0.4 1.4 0s0.4-1 0-1.4l-8.3-5.7C12.5 6.1 12.3 6 12 6z"/>
  <path fill="rgba(0,0,0,0.55)" d="M12 13c-0.3 0-0.5 0.1-0.7 0.3L3 19c-0.4 0.4-0.4 1 0 1.4s1 0.4 1.4 0l8.3-5.7c0.4-0.3 0.9-0.3 1.3 0l8.3 5.7c0.4 0.4 1 0.4 1.4 0s0.4-1 0-1.4l-8.3-5.7C12.5 13.1 12.3 13 12 13z"/>
  <path fill="#fff" d="M12 14c-0.3 0-0.5 0.1-0.7 0.3L3 20c-0.4 0.4-0.4 1 0 1.4s1 0.4 1.4 0l8.3-5.7c0.4-0.3 0.9-0.3 1.3 0l8.3 5.7c0.4 0.4 1 0.4 1.4 0s0.4-1 0-1.4l-8.3-5.7C12.5 14.1 12.3 14 12 14z"/>

</svg>