<svg xmlns="http://www.w3.org/2000/svg" viewBox="0 0 24 24" width="24" height="24">
  <defs>
    <linearGradient id="bg_image_atlas_compose" x1="0" y1="0" x2="1" y2="1">
      <stop offset="0%" stop-color="#d97706"/>
      <stop offset="100%" stop-color="#ea580c"/>
    </linearGradient>
  </defs>
  <rect width="24" height="24" rx="4" ry="4" fill="url(#bg_image_atlas_compose)"/>

  <g fill="#fff">
    <rect x="3.5"  y="3.5"  width="4.2" height="4.2" rx="0.6"/>
    <rect x="8.4"  y="3.5"  width="4.2" height="4.2" rx="0.6"/>
    <rect x="13.3" y="3.5"  width="4.2" height="4.2" rx="0.6"/>
    <rect x="18.2" y="3.5"  width="2.3" height="4.2" rx="0.6"/>

    <rect x="3.5"  y="8.4"  width="4.2" height="4.2" rx="0.6"/>
    <rect x="8.4"  y="8.4"  width="4.2" height="4.2" rx="0.6" fill="rgba(255,255,255,0.55)"/>
    <rect x="13.3" y="8.4"  width="4.2" height="4.2" rx="0.6"/>
    <rect x="18.2" y="8.4"  width="2.3" height="4.2" rx="0.6"/>

    <rect x="3.5"  y="13.3" width="4.2" height="4.2" rx="0.6"/>
    <rect x="8.4"  y="13.3" width="4.2" height="4.2" rx="0.6"/>
    <rect x="13.3" y="13.3" width="4.2" height="4.2" rx="0.6"/>
    <rect x="18.2" y="13.3" width="2.3" height="4.2" rx="0.6"/>

    <rect x="3.5"  y="18.2" width="4.2" height="2.3" rx="0.6"/>
    <rect x="8.4"  y="18.2" width="4.2" height="2.3" rx="0.6"/>
    <rect x="13.3" y="18.2" width="4.2" height="2.3" rx="0.6"/>
    <rect x="18.2" y="18.2" width="2.3" height="2.3" rx="0.6"/>
  </g>
</svg>
