<svg xmlns="http://www.w3.org/2000/svg" viewBox="0 0 24 24" width="24" height="24">
  <defs>
    <linearGradient id="bg_islands_terrain_refine" x1="0" y1="0" x2="1" y2="1">
      <stop offset="0%" stop-color="#d97706"/>
      <stop offset="100%" stop-color="#df8f32"/>
    </linearGradient>
  </defs>
  <rect width="24" height="24" rx="4" ry="4" fill="url(#bg_islands_terrain_refine)"/>

  <path fill="#fff" d="M3 17c0 1.1.9 2 2 2h14c1.1 0 2-.9 2-2v-6c0-1.1-.9-2-2-2h-3l-2-3-2 3H5c-1.1 0-2 .9-2 2v6z"/>
  <path fill="rgba(0,0,0,0.55)" d="M5 11h14v6H5v-6zm2 2h10v2H7v-2z"/>
  <path fill="rgba(255,255,255,0.35)" d="M5 11h14v1H5v-1z"/>

</svg>