<svg xmlns="http://www.w3.org/2000/svg" viewBox="0 0 24 24" width="24" height="24">
  <defs>
    <linearGradient id="bg_perlin_noise" x1="0" y1="0" x2="1" y2="1">
      <stop offset="0%" stop-color="#15803d"/>
      <stop offset="100%" stop-color="#3f965f"/>
    </linearGradient>
  </defs>
  <rect width="24" height="24" rx="4" ry="4" fill="url(#bg_perlin_noise)"/>

  <path fill="#fff" d="M3 12c0-3.9 3.1-7 7-7 3.9 0 7 3.1 7 7s-3.1 7-7 7c-1.5 0-2.9-.5-4-1.3-1.1-.8-1.8-2-2.3-3.2z"/>
  <path fill="rgba(0,0,0,0.55)" d="M3 16c0-3.9 3.1-7 7-7 3.9 0 7 3.1 7 7s-3.1 7-7 7c-1.5 0-2.9-.5-4-1.3-1.1-.8-1.8-2-2.3-3.2z"/>
  <path fill="#fff" d="M3 8c0-1.7 1.3-3 3-3 1.7 0 3 1.3 3 3s-1.3 3-3 3c-.6 0-1.1-.2-1.5-.5-.4-.3-.6-.7-.5-1.5z"/>
  <path fill="rgba(255,255,255,0.35)" d="M14 12c0-1.7 1.3-3 3-3 1.7 0 3 1.3 3 3s-1.3 3-3 3c-.6 0-1.1-.2-1.5-.5-.4-.3-.6-.7-.5-1.5z"/>

</svg>