<svg xmlns="http://www.w3.org/2000/svg" viewBox="0 0 24 24" width="24" height="24">
  <defs>
    <linearGradient id="bg_tess_edge_deform" x1="0" y1="0" x2="1" y2="1">
      <stop offset="0%" stop-color="#0891b2"/>
      <stop offset="100%" stop-color="#34a4bf"/>
    </linearGradient>
  </defs>
  <rect width="24" height="24" rx="4" ry="4" fill="url(#bg_tess_edge_deform)"/>

  <path fill="#fff" d="M3 18h6v-3H3v3zm0-5h6v-3H3v3zm0-5h6V5H3v3zm8 10h6v-3h-6v3zm0-5h6v-3h-6v3zm0-5h6V5h-6v3z"/>
  <path fill="rgba(0,0,0,0.55)" d="M17 18c1.1 0 2-.9 2-2s-.9-2-2-2c-.6 0-1.1.3-1.5.8l-1.1-.6c.6-.9 1.7-1.5 2.6-1.5 1.7 0 3 1.3 3 3s-1.3 3-3 3c-.9 0-1.8-.5-2.3-1.2l-1.2.7c.6 1 1.7 1.7 2.7 1.7.9 0 1.7-.4 2.3-1zM17 11c1.1 0 2-.9 2-2s-.9-2-2-2c-.6 0-1.1.3-1.5.8l-1.1-.6c.6-.9 1.7-1.5 2.6-1.5 1.7 0 3 1.3 3 3s-1.3 3-3 3c-.9 0-1.8-.5-2.3-1.2l-1.2.7c.6 1 1.7 1.7 2.7 1.7.9 0 1.7-.4 2.3-1z"/>

</svg>