<svg xmlns="http://www.w3.org/2000/svg" viewBox="0 0 24 24" width="24" height="24">
  <defs>
    <linearGradient id="bg_flow_field" x1="0" y1="0" x2="1" y2="1">
      <stop offset="0%" stop-color="#16a34a"/>
      <stop offset="100%" stop-color="#3fb36a"/>
    </linearGradient>
  </defs>
  <rect width="24" height="24" rx="4" ry="4" fill="url(#bg_flow_field)"/>

  <path fill="#fff" d="M12,6 L13,9 L11,9 L12,6 Z M12,18 L11,15 L13,15 L12,18 Z M6,12 L9,11 L9,13 L6,12 Z M18,12 L15,13 L15,11 L18,12 Z"/>
  <path fill="rgba(0,0,0,0.55)" d="M12,8 L12,16 L16,12 L8,12 L12,8 Z M12,2 L2,12 L12,22 L22,12 L12,2 Z"/>
  <path fill="#fff" d="M12,3.41 L3.41,12 L12,20.59 L20.59,12 L12,3.41 Z"/>

</svg>