<svg xmlns="http://www.w3.org/2000/svg" viewBox="0 0 24 24" width="24" height="24">
  <defs>
    <linearGradient id="bg_deeper_poi_placer" x1="0" y1="0" x2="1" y2="1">
      <stop offset="0%" stop-color="#0369a1"/>
      <stop offset="100%" stop-color="#3084b1"/>
    </linearGradient>
  </defs>
  <rect width="24" height="24" rx="4" ry="4" fill="url(#bg_deeper_poi_placer)"/>

  <rect x="3" y="3" width="18" height="18" fill="rgba(0,0,0,0.55)"/>
  <rect x="5" y="5" width="3" height="3" fill="#fff"/>
  <rect x="9" y="5" width="3" height="3" fill="#fff"/>
  <rect x="13" y="5" width="3" height="3" fill="#fff"/>
  <rect x="17" y="5" width="3" height="3" fill="#fff"/>
  <rect x="5" y="9" width="3" height="3" fill="#fff"/>
  <rect x="17" y="9" width="3" height="3" fill="#fff"/>
  <rect x="5" y="13" width="3" height="3" fill="#fff"/>
  <rect x="9" y="13" width="3" height="3" fill="#fff"/>
  <rect x="13" y="13" width="3" height="3" fill="#fff"/>
  <rect x="17" y="13" width="3" height="3" fill="#fff"/>
  <rect x="5" y="17" width="3" height="3" fill="#fff"/>
  <rect x="9" y="17" width="3" height="3" fill="#fff"/>

</svg>