<svg xmlns="http://www.w3.org/2000/svg" viewBox="0 0 24 24" width="24" height="24">
  <defs>
    <linearGradient id="bg_furniture_list_split" x1="0" y1="0" x2="1" y2="1">
      <stop offset="0%" stop-color="#16a34a"/>
      <stop offset="100%" stop-color="#3fb36a"/>
    </linearGradient>
  </defs>
  <rect width="24" height="24" rx="4" ry="4" fill="url(#bg_furniture_list_split)"/>

  <path fill="#fff" d="M5 3h14c1.1 0 2 .9 2 2v14c0 1.1-.9 2-2 2H5c-1.1 0-2-.9-2-2V5c0-1.1.9-2 2-2z"/>
  <rect x="7" y="7" width="4" height="4" fill="#fff"/>
  <rect x="13" y="7" width="4" height="4" fill="#fff"/>
  <rect x="7" y="13" width="4" height="4" fill="#fff"/>
  <rect x="13" y="13" width="4" height="4" fill="#fff"/>
  <path fill="rgba(0,0,0,0.55)" d="M5 3h14c1.1 0 2 .9 2 2v14c0 1.1-.9 2-2 2H5c-1.1 0-2-.9-2-2V5c0-1.1.9-2 2-2zM6 4v16h12V4H6z" />

</svg>