<svg xmlns="http://www.w3.org/2000/svg" viewBox="0 0 24 24" width="24" height="24">
  <defs>
    <linearGradient id="bg_shore_expander" x1="0" y1="0" x2="1" y2="1">
      <stop offset="0%" stop-color="#0f766e"/>
      <stop offset="100%" stop-color="#3a8e88"/>
    </linearGradient>
  </defs>
  <rect width="24" height="24" rx="4" ry="4" fill="url(#bg_shore_expander)"/>

  <path fill="#fff" d="M2 12h2v-2h2v-2h2v-2h4v-2h4v-2h2v2h2v2h2v2h2v2h2v2h-2v2h-2v2h-2v2h-4v2h-4v2h-2v-2h-2v-2h-2v-2h-2v-2H2z"/>
  <path fill="rgba(0,0,0,0.55)" d="M4 12h1v-1h1v-1h1v-1h3v-1h3v-1h1v1h1v1h1v1h1v1h1v1h-1v1h-1v1h-1v1h-3v1h-3v1h-1v-1h-1v-1h-1v-1H4z"/>
  <path fill="rgba(255,255,255,0.35)" d="M6 12h9v-1H6z"/>

</svg>