<svg xmlns="http://www.w3.org/2000/svg" viewBox="0 0 24 24" width="24" height="24">
  <defs>
    <linearGradient id="bg_search" x1="0" y1="0" x2="1" y2="1">
      <stop offset="0%" stop-color="#475569"/>
      <stop offset="100%" stop-color="#64748b"/>
    </linearGradient>
  </defs>
  <rect width="24" height="24" rx="4" ry="4" fill="url(#bg_search)"/>

  <path fill="rgba(0,0,0,0.55)" d="M16.7 15.3l-3.6-3.6c.8-1.1 1.3-2.4 1.3-3.8 0-3.3-2.7-6-6-6s-6 2.7-6 6 2.7 6 6 6c1.4 0 2.7-.5 3.8-1.3l3.6 3.6 1.4-1.4zM6.5 5c2.8 0 5 2.2 5 5 0 2.8-2.2 5-5 5s-5-2.2-5-5 2.2-5 5-5z"/>
  <rect x="4" y="16" width="16" height="2" fill="rgba(0,0,0,0.55)" opacity="0.3"/>
  <rect x="4" y="12" width="16" height="2" fill="rgba(0,0,0,0.55)" opacity="0.3"/>
  <rect x="4" y="8" width="16" height="2" fill="#fff"/>

</svg>