<svg xmlns="http://www.w3.org/2000/svg" viewBox="0 0 24 24" width="24" height="24">
  <defs>
    <linearGradient id="bg_complex_indoor_cleanup" x1="0" y1="0" x2="1" y2="1">
      <stop offset="0%" stop-color="#b45309"/>
      <stop offset="100%" stop-color="#c17135"/>
    </linearGradient>
  </defs>
  <rect width="24" height="24" rx="4" ry="4" fill="url(#bg_complex_indoor_cleanup)"/>

  <path fill="#fff" d="M3.5 5.5c-.83 0-1.5.67-1.5 1.5v10c0 .83.67 1.5 1.5 1.5h17c.83 0 1.5-.67 1.5-1.5v-10c0-.83-.67-1.5-1.5-1.5h-17zM5 7h14v8H5V7z"/>
  <path fill="rgba(0,0,0,0.55)" d="M7 16h10v1H7z"/>
  <path fill="#fff" d="M8 18h8v1H8z"/>
  <path fill="rgba(255,255,255,0.35)" d="M9 19h6v1H9z"/>

</svg>