<svg xmlns="http://www.w3.org/2000/svg" viewBox="0 0 24 24" width="24" height="24">
  <defs>
    <linearGradient id="bg_opensimplex2s_noise" x1="0" y1="0" x2="1" y2="1">
      <stop offset="0%" stop-color="#15803d"/>
      <stop offset="100%" stop-color="#3f965f"/>
    </linearGradient>
  </defs>
  <rect width="24" height="24" rx="4" ry="4" fill="url(#bg_opensimplex2s_noise)"/>

  <path fill="#fff" d="M12,3 C7.5,3 3,7.5 3,12 C3,16.5 7.5,21 12,21 C16.5,21 21,16.5 21,12 C21,7.5 16.5,3 12,3 Z M12,4 C15.9,4 19,7.1 19,12 C19,16.9 15.9,20 12,20 C8.1,20 5,16.9 5,12 C5,7.1 8.1,4 12,4 Z"/>
  <path fill="rgba(0,0,0,0.55)" d="M12,6 C9.2,6 7,8.2 7,11 C7,13.8 9.2,16 12,16 C14.8,16 17,13.8 17,11 C17,8.2 14.8,6 12,6 Z M12,7 C14.2,7 16,8.8 16,11 C16,13.2 14.2,15 12,15 C9.8,15 8,13.2 8,11 C8,8.8 9.8,7 12,7 Z"/>
  <path fill="rgba(255,255,255,0.35)" d="M12,9 C10.3,9 9,10.3 9,12 C9,13.7 10.3,15 12,15 C13.7,15 15,13.7 15,12 C15,10.3 13.7,9 12,9 Z M12,10 C13.1,10 14,10.9 14,12 C14,13.1 13.1,14 12,14 C10.9,14 10,13.1 10,12 C10,10.9 10.9,10 12,10 Z"/>

</svg>