<svg xmlns="http://www.w3.org/2000/svg" viewBox="0 0 24 24" width="24" height="24">
  <defs>
    <linearGradient id="bg_grid_mask_apply" x1="0" y1="0" x2="1" y2="1">
      <stop offset="0%" stop-color="#be185d"/>
      <stop offset="100%" stop-color="#c9417a"/>
    </linearGradient>
  </defs>
  <rect width="24" height="24" rx="4" ry="4" fill="url(#bg_grid_mask_apply)"/>

  <path fill="rgba(0,0,0,0.55)" d="M3 3h18v18H3z"/>
  <path fill="#fff" d="M5 5h14v14H5z"/>
  <rect x="7" y="7" width="2" height="2" fill="rgba(0,0,0,0.55)"/>
  <rect x="11" y="7" width="2" height="2" fill="rgba(0,0,0,0.55)"/>
  <rect x="15" y="7" width="2" height="2" fill="rgba(0,0,0,0.55)"/>
  <rect x="7" y="11" width="2" height="2" fill="rgba(0,0,0,0.55)"/>
  <rect x="11" y="11" width="2" height="2" fill="rgba(0,0,0,0.55)"/>
  <rect x="15" y="11" width="2" height="2" fill="rgba(0,0,0,0.55)"/>
  <rect x="7" y="15" width="2" height="2" fill="rgba(0,0,0,0.55)"/>
  <rect x="11" y="15" width="2" height="2" fill="rgba(0,0,0,0.55)"/>
  <rect x="15" y="15" width="2" height="2" fill="rgba(0,0,0,0.55)"/>
  <path fill="#fff" d="M12,3 C7.029,3 3,7.029 3,12 C3,16.971 7.029,21 12,21 C16.971,21 21,16.971 21,12 C21,7.029 16.971,3 12,3 Z M12,5 C15.866,5 19,8.134 19,12 C19,15.866 15.866,19 12,19 C8.134,19 5,15.866 5,12 C5,8.134 8.134,5 12,5 Z"/>

</svg>