<svg xmlns="http://www.w3.org/2000/svg" viewBox="0 0 24 24" width="24" height="24">
  <defs>
    <linearGradient id="bg_islands_poi_layout" x1="0" y1="0" x2="1" y2="1">
      <stop offset="0%" stop-color="#d97706"/>
      <stop offset="100%" stop-color="#df8f32"/>
    </linearGradient>
  </defs>
  <rect width="24" height="24" rx="4" ry="4" fill="url(#bg_islands_poi_layout)"/>

  <path fill="#fff" d="M2 17c0 1.7 2.3 3 5 3h10c2.8 0 5-1.3 5-3s-2.2-3-5-3H7c-2.7 0-5 1.3-5 3z"/>
  <circle cx="7" cy="12" r="2" fill="#fff"/>
  <circle cx="17" cy="12" r="2" fill="#fff"/>
  <path fill="rgba(0,0,0,0.55)" d="M12 3c-2.8 0-5 1.3-5 3s2.2 3 5 3 5-1.3 5-3-2.2-3-5-3z"/>
  <path fill="rgba(255,255,255,0.35)" d="M12 6c1.7 0 3-.8 3-1.5S13.7 3 12 3s-3 .8-3 1.5S10.3 6 12 6z"/>

</svg>