<svg xmlns="http://www.w3.org/2000/svg" viewBox="0 0 24 24" width="24" height="24">
  <defs>
    <linearGradient id="bg_room_corridor_walk" x1="0" y1="0" x2="1" y2="1">
      <stop offset="0%" stop-color="#0369a1"/>
      <stop offset="100%" stop-color="#3084b1"/>
    </linearGradient>
  </defs>
  <rect width="24" height="24" rx="4" ry="4" fill="url(#bg_room_corridor_walk)"/>

  <path fill="#fff" d="M12,4 L12,7 C12,7.552,12.448,8,13,8 L17,8 C17.552,8,18,7.552,18,7 L18,4 C18,3.448,17.552,3,17,3 L13,3 C12.448,3,12,3.448,12,4 Z"/>
  <path fill="#fff" d="M7,4 L7,7 C7,7.552,6.552,8,6,8 L2,8 C1.448,8,1,7.552,1,7 L1,4 C1,3.448,1.448,3,2,3 L6,3 C6.552,3,7,3.448,7,4 Z"/>
  <path fill="#fff" d="M12,17 L12,20 C12,20.552,12.448,21,13,21 L17,21 C17.552,21,18,20.552,18,20 L18,17 C18,16.448,17.552,16,17,16 L13,16 C12.448,16,12,16.448,12,17 Z"/>
  <path fill="#fff" d="M7,17 L7,20 C7,20.552,6.552,21,6,21 L2,21 C1.448,21,1,20.552,1,20 L1,17 C1,16.448,1.448,16,2,16 L6,16 C6.552,16,7,16.448,7,17 Z"/>
  <path fill="rgba(0,0,0,0.55)" d="M12,8 L12,16 L11,16 L11,8 L12,8 Z"/>
  <path fill="rgba(0,0,0,0.55)" d="M7,12 L16,12 L16,11 L7,11 L7,12 Z"/>

</svg>