<svg xmlns="http://www.w3.org/2000/svg" viewBox="0 0 24 24" width="24" height="24">
  <defs>
    <linearGradient id="bg_park_generator" x1="0" y1="0" x2="1" y2="1">
      <stop offset="0%" stop-color="#0369a1"/>
      <stop offset="100%" stop-color="#3084b1"/>
    </linearGradient>
  </defs>
  <rect width="24" height="24" rx="4" ry="4" fill="url(#bg_park_generator)"/>

  <path fill="#fff" d="M12,4 C7.5,4 4,7.5 4,12 C4,16.5 7.5,20 12,20 C16.5,20 20,16.5 20,12 C20,7.5 16.5,4 12,4 Z M12,18 C8.69,18 6,15.31 6,12 C6,8.69 8.69,6 12,6 C15.31,6 18,8.69 18,12 C18,15.31 15.31,18 12,18 Z"/>
  <circle cx="9" cy="9" r="1.5" fill="rgba(0,0,0,0.55)"/>
  <circle cx="15" cy="15" r="1.5" fill="rgba(0,0,0,0.55)"/>
  <path fill="rgba(255,255,255,0.35)" d="M12,6 C10.34,6 9,7.34 9,9 C9,10.66 10.34,12 12,12 C13.66,12 15,10.66 15,9 C15,7.34 13.66,6 12,6 Z"/>

</svg>