<svg xmlns="http://www.w3.org/2000/svg" viewBox="0 0 24 24" width="24" height="24">
  <defs>
    <linearGradient id="bg_image_gen" x1="0" y1="0" x2="1" y2="1">
      <stop offset="0%" stop-color="#6366f1"/>
      <stop offset="100%" stop-color="#818cf8"/>
    </linearGradient>
  </defs>
  <rect width="24" height="24" rx="4" ry="4" fill="url(#bg_image_gen)"/>

  
  

  
  

  
  

  <path fill="#fff" d="M12,4 C11.447,4 11,4.447 11,5 L11,6 C11,6.553 11.447,7 12,7 C12.553,7 13,6.553 13,6 L13,5 C13,4.447 12.553,4 12,4 Z"/>
  <path fill="#fff" d="M7,5 C6.447,5 6,5.447 6,6 L6,8 C6,8.553 6.447,9 7,9 C7.553,9 8,8.553 8,8 L8,6 C8,5.447 7.553,5 7,5 Z"/>
  <path fill="#fff" d="M17,5 C16.447,5 16,5.447 16,6 L16,8 C16,8.553 16.447,9 17,9 C17.553,9 18,8.553 18,8 L18,6 C18,5.447 17.553,5 17,5 Z"/>
  <path fill="#fff" d="M8,10 L16,10 C16.553,10 17,10.447 17,11 L17,16 C17,16.553 16.553,17 16,17 L8,17 C7.447,17 7,16.553 7,16 L7,11 C7,10.447 7.447,10 8,10 Z"/>
  <path fill="#fff" d="M12,17 C11.447,17 11,17.447 11,18 L11,19 C11,19.553 11.447,20 12,20 C12.553,20 13,19.553 13,19 L13,18 C13,17.447 12.553,17 12,17 Z"/>
  <path fill="#fff" d="M6,17 L4,17 C3.447,17 3,17.447 3,18 L3,20 C3,20.553 3.447,21 4,21 C4.553,21 5,20.553 5,20 L5,18 C5,17.447 4.553,17 4,17 Z"/>
  <path fill="#fff" d="M20,17 L18,17 C17.447,17 17,17.447 17,18 L17,20 C17,20.553 17.447,21 18,21 C18.553,21 19,20.553 19,20 L19,18 C19,17.447 18.553,17 18,17 Z"/>
  <path fill="rgba(0,0,0,0.55)" d="M9,12 L15,12 L15,15 L9,15 L9,12 Z"/>




</svg>