<svg xmlns="http://www.w3.org/2000/svg" viewBox="0 0 24 24" width="24" height="24">
  <defs>
    <linearGradient id="bg_template_room_generator" x1="0" y1="0" x2="1" y2="1">
      <stop offset="0%" stop-color="#1e5a8a"/>
      <stop offset="100%" stop-color="#3b82a8"/>
    </linearGradient>
  </defs>
  <rect width="24" height="24" rx="4" ry="4" fill="url(#bg_template_room_generator)"/>
  <rect x="2" y="2" width="8" height="8" rx="1" fill="rgba(255,255,255,0.15)" stroke="#fff" stroke-width="0.5"/>
  <rect x="14" y="2" width="8" height="8" rx="1" fill="rgba(255,255,255,0.15)" stroke="#fff" stroke-width="0.5"/>
  <rect x="2" y="14" width="8" height="8" rx="1" fill="rgba(255,255,255,0.15)" stroke="#fff" stroke-width="0.5"/>
  <rect x="14" y="14" width="8" height="8" rx="1" fill="rgba(255,255,255,0.15)" stroke="#fff" stroke-width="0.5"/>
  <rect x="10" y="5" width="4" height="2" fill="#fff" opacity="0.8"/>
  <rect x="10" y="17" width="4" height="2" fill="#fff" opacity="0.8"/>
  <rect x="5" y="10" width="2" height="4" fill="#fff" opacity="0.8"/>
  <rect x="17" y="10" width="2" height="4" fill="#fff" opacity="0.8"/>
  <rect x="4" y="4" width="1" height="1" fill="#fff" opacity="0.5"/>
  <rect x="7" y="4" width="1" height="1" fill="#fff" opacity="0.5"/>
  <rect x="4" y="7" width="1" height="1" fill="#fff" opacity="0.5"/>
  <rect x="7" y="7" width="1" height="1" fill="#fff" opacity="0.5"/>
  <rect x="16" y="16" width="1" height="1" fill="#fff" opacity="0.5"/>
  <rect x="19" y="16" width="1" height="1" fill="#fff" opacity="0.5"/>
  <rect x="16" y="19" width="1" height="1" fill="#fff" opacity="0.5"/>
  <rect x="19" y="19" width="1" height="1" fill="#fff" opacity="0.5"/>
</svg>
