<svg xmlns="http://www.w3.org/2000/svg" viewBox="0 0 24 24" width="24" height="24">
  <defs>
    <linearGradient id="bg_track_spline_smooth" x1="0" y1="0" x2="1" y2="1">
      <stop offset="0%" stop-color="#9333ea"/>
      <stop offset="100%" stop-color="#a657ed"/>
    </linearGradient>
  </defs>
  <rect width="24" height="24" rx="4" ry="4" fill="url(#bg_track_spline_smooth)"/>

  <path fill="#fff" d="M12 4C7.5 4 4 7.5 4 12s3.5 8 8 8 8-3.5 8-8-3.5-8-8-8zm0 14c-3.3 0-6-2.7-6-6s2.7-6 6-6 6 2.7 6 6-2.7 6-6 6z"/>
  <circle cx="12" cy="12" r="2" fill="rgba(0,0,0,0.55)"/>
  <circle cx="16" cy="12" r="1" fill="#fff"/>
  <circle cx="8" cy="12" r="1" fill="#fff"/>
  <circle cx="12" cy="8" r="1" fill="#fff"/>
  <circle cx="12" cy="16" r="1" fill="#fff"/>

</svg>