<svg xmlns="http://www.w3.org/2000/svg" viewBox="0 0 24 24" width="24" height="24">
  <defs>
    <linearGradient id="bg_terrain_smoother" x1="0" y1="0" x2="1" y2="1">
      <stop offset="0%" stop-color="#0e7490"/>
      <stop offset="100%" stop-color="#398da3"/>
    </linearGradient>
  </defs>
  <rect width="24" height="24" rx="4" ry="4" fill="url(#bg_terrain_smoother)"/>

  <path fill="#fff" d="M3 17v-10c0-1.1.9-2 2-2h4c1.1 0 2 .9 2 2v10c0 1.1-.9 2-2 2H5c-1.1 0-2-.9-2-2z"/>
  <path fill="rgba(0,0,0,0.55)" d="M3 17l2-2.5L3 12l2-2.5L3 7v10z"/>
  <path fill="#fff" d="M15 7c1.66 0 3 1.34 3 3v4c0 1.66-1.34 3-3 3H9v-2h6c.55 0 1-.45 1-1v-2c0-.55-.45-1-1-1H9V7h6z"/>
  <path fill="rgba(0,0,0,0.55)" d="M15 17h-6v-2h6c.55 0 1-.45 1-1v-4c0-.55-.45-1-1-1H9V7h6c1.66 0 3 1.34 3 3v4c0 1.66-1.34 3-3 3z"/>
  <path fill="rgba(255,255,255,0.35)" d="M13 12l3-2.5L13 7v5z"/>

</svg>