<svg xmlns="http://www.w3.org/2000/svg" viewBox="0 0 24 24" width="24" height="24">
  <defs>
    <linearGradient id="bg_dijkstra_shortest_path" x1="0" y1="0" x2="1" y2="1">
      <stop offset="0%" stop-color="#c2410c"/>
      <stop offset="100%" stop-color="#cc6337"/>
    </linearGradient>
  </defs>
  <rect width="24" height="24" rx="4" ry="4" fill="url(#bg_dijkstra_shortest_path)"/>

  <path fill="#fff" d="M12,3 L12,5 C12,5.55,12.45,6,13,6 L15,6 C15.55,6,16,5.55,16,5 L16,3 C16,2.45,15.55,2,15,2 L13,2 C12.45,2,12,2.45,12,3 Z"/>
  <path fill="#fff" d="M19,12 L21,12 C21.55,12,22,12.45,22,13 L22,15 C22,15.55,21.55,16,21,16 L19,16 C18.45,16,18,15.55,18,15 L18,13 C18,12.45,18.45,12,19,12 Z"/>
  <path fill="#fff" d="M12,19 L12,21 C12,21.55,11.55,22,11,22 L9,22 C8.45,22,8,21.55,8,21 L8,19 C8,18.45,8.45,18,9,18 L11,18 C11.55,18,12,18.45,12,19 Z"/>
  <path fill="#fff" d="M3,12 L5,12 C5.55,12,6,11.55,6,11 L6,9 C6,8.45,5.55,8,5,8 L3,8 C2.45,8,2,8.45,2,9 L2,11 C2,11.55,2.45,12,3,12 Z"/>
  <path fill="rgba(0,0,0,0.55)" d="M12,7 C9.79,7,8,8.79,8,11 C8,13.21,9.79,15,12,15 C14.21,15,16,13.21,16,11 C16,8.79,14.21,7,12,7 Z M12,14 C10.34,14,9,12.66,9,11 C9,9.34,10.34,8,12,8 C13.66,8,15,9.34,15,11 C15,12.66,13.66,14,12,14 Z"/>

</svg>