<svg xmlns="http://www.w3.org/2000/svg" viewBox="0 0 24 24" width="24" height="24">
  <defs>
    <linearGradient id="bg_organic_island_shape" x1="0" y1="0" x2="1" y2="1">
      <stop offset="0%" stop-color="#c2410c"/>
      <stop offset="100%" stop-color="#cc6337"/>
    </linearGradient>
  </defs>
  <rect width="24" height="24" rx="4" ry="4" fill="url(#bg_organic_island_shape)"/>

  <path fill="#fff" d="M17.5 5.5c0-1.1-.9-2-2-2h-7c-1.1 0-2 .9-2 2v13c0 1.1.9 2 2 2h7c1.1 0 2-.9 2-2v-13z"/>
  <path fill="rgba(0,0,0,0.55)" d="M17.5 5.5c0-0.3-.2-.5-.5-.5h-7c-.3 0-.5.2-.5.5v13c0 .3.2.5.5.5h7c.3 0 .5-.2.5-.5v-13z"/>
  <path fill="#fff" d="M12 4c-4.4 0-8 3.6-8 8s3.6 8 8 8 8-3.6 8-8-3.6-8-8-8zm0 14c-3.3 0-6-2.7-6-6s2.7-6 6-6 6 2.7 6 6-2.7 6-6 6z"/>
  <path fill="rgba(0,0,0,0.55)" d="M12 5c-3.9 0-7 3.1-7 7s3.1 7 7 7 7-3.1 7-7-3.1-7-7-7zm0 12c-2.8 0-5-2.2-5-5s2.2-5 5-5 5 2.2 5 5-2.2 5-5 5z"/>

</svg>