<svg xmlns="http://www.w3.org/2000/svg" viewBox="0 0 24 24" width="24" height="24">
  <defs>
    <linearGradient id="bg_str_to_dict" x1="0" y1="0" x2="1" y2="1">
      <stop offset="0%" stop-color="#7c3aed"/>
      <stop offset="100%" stop-color="#935df0"/>
    </linearGradient>
  </defs>
  <rect width="24" height="24" rx="4" ry="4" fill="url(#bg_str_to_dict)"/>

  <path fill="#fff" d="M3 12h5v-1h-5v1zm0 3h8v-1h-8v1zm0-6h8v-1h-8v1zm11 1a1 1 0 0 0-1 1v2a1 1 0 0 0 2 0v-2a1 1 0 0 0-1-1z"/>
  <path fill="rgba(0,0,0,0.55)" d="M15 11h5v-1h-5v1zm0 3h5v-1h-5v1zm0-6h5v-1h-5v1z"/>
  <path fill="#fff" d="M8 12h8l-3-3v6l3-3z"/>
  <path fill="rgba(0,0,0,0.55)" d="M10 7h1v1h-1zm0 10h1v1h-1z"/>

</svg>