<svg xmlns="http://www.w3.org/2000/svg" viewBox="0 0 24 24" width="24" height="24">
  <defs>
    <linearGradient id="bg_furniture_group_stamp" x1="0" y1="0" x2="1" y2="1">
      <stop offset="0%" stop-color="#6366f1"/>
      <stop offset="100%" stop-color="#7f81f3"/>
    </linearGradient>
  </defs>
  <rect width="24" height="24" rx="4" ry="4" fill="url(#bg_furniture_group_stamp)"/>

  <path fill="rgba(0,0,0,0.55)" d="M2 21h20v-1H2v1z"/>
  <rect x="3" y="3" width="1" height="1" fill="#fff"/>
  <rect x="6" y="3" width="1" height="1" fill="#fff"/>
  <rect x="9" y="3" width="1" height="1" fill="#fff"/>
  <rect x="12" y="3" width="1" height="1" fill="#fff"/>
  <rect x="15" y="3" width="1" height="1" fill="#fff"/>
  <rect x="18" y="3" width="1" height="1" fill="#fff"/>
  <rect x="3" y="6" width="1" height="1" fill="#fff"/>
  <rect x="6" y="6" width="1" height="1" fill="#fff"/>
  <rect x="9" y="6" width="1" height="1" fill="#fff"/>
  <rect x="12" y="6" width="1" height="1" fill="#fff"/>
  <rect x="15" y="6" width="1" height="1" fill="#fff"/>
  <rect x="18" y="6" width="1" height="1" fill="#fff"/>
  <rect x="3" y="9" width="1" height="1" fill="#fff"/>
  <rect x="6" y="9" width="1" height="1" fill="#fff"/>
  <rect x="9" y="9" width="1" height="1" fill="#fff"/>
  <rect x="12" y="9" width="1" height="1" fill="#fff"/>
  <rect x="15" y="9" width="1" height="1" fill="#fff"/>
  <rect x="18" y="9" width="1" height="1" fill="#fff"/>
  <rect x="5" y="11" width="3" height="3" fill="#000"/>
  <rect x="8" y="14" width="3" height="3" fill="#fff"/>
  <rect x="11" y="11" width="3" height="3" fill="rgba(0,0,0,0.55)"/>
  <rect x="14" y="14" width="3" height="3" fill="#fff"/>
  <path fill="#fff" d="M20 18h-2v3h-1v-3h-2v-1h5v1z"/>
  <path fill="#fff" d="M18 20v-2h-3v-1h3v-2h1v5h-1z"/>

</svg>