<svg xmlns="http://www.w3.org/2000/svg" viewBox="0 0 24 24" width="24" height="24">
  <defs>
    <linearGradient id="bg_cliff_atlas_extract" x1="0" y1="0" x2="0" y2="1">
      <stop offset="0%" stop-color="#6b8e23"/>
      <stop offset="55%" stop-color="#4b6320"/>
      <stop offset="100%" stop-color="#3a2d1d"/>
    </linearGradient>
    <linearGradient id="facade_cliff_atlas_extract" x1="0" y1="0" x2="0" y2="1">
      <stop offset="0%" stop-color="#7a5a3a"/>
      <stop offset="100%" stop-color="#3d2a1a"/>
    </linearGradient>
  </defs>
  <rect width="24" height="24" rx="4" ry="4" fill="url(#bg_cliff_atlas_extract)"/>

  <path d="M 2,11 L 7,9 L 11,10 L 15,8 L 19,9 L 22,11 L 22,16 L 2,16 Z"
        fill="url(#facade_cliff_atlas_extract)"/>

  <path d="M 2,11 L 7,9 L 11,10 L 15,8 L 19,9 L 22,11"
        fill="none" stroke="#a8d050" stroke-width="1.4" stroke-linejoin="round"/>

  <g fill="#fff" opacity="0.85">
    <rect x="3"  y="17.5" width="3" height="3" rx="0.4"/>
    <rect x="6.5" y="17.5" width="3" height="3" rx="0.4"/>
    <rect x="10"  y="17.5" width="3" height="3" rx="0.4"/>
    <rect x="13.5" y="17.5" width="3" height="3" rx="0.4"/>
    <rect x="17"  y="17.5" width="3" height="3" rx="0.4"/>
  </g>
</svg>
