<svg xmlns="http://www.w3.org/2000/svg" viewBox="0 0 24 24" width="24" height="24">
  <defs>
    <linearGradient id="bg_river_spline" x1="0" y1="0" x2="1" y2="1">
      <stop offset="0%" stop-color="#b45309"/>
      <stop offset="100%" stop-color="#c17135"/>
    </linearGradient>
  </defs>
  <rect width="24" height="24" rx="4" ry="4" fill="url(#bg_river_spline)"/>

  <path fill="#fff" d="M3 12c0 0.6 0.4 1 1 1s1-0.4 1-1c0-0.6-0.4-1-1-1S3 11.4 3 12zM20 12c0 0.6 0.4 1 1 1s1-0.4 1-1c0-0.6-0.4-1-1-1S20 11.4 20 12z"/>
  <path fill="#fff" d="M3 7c0 0.6 0.4 1 1 1s1-0.4 1-1c0-0.6-0.4-1-1-1S3 6.4 3 7zM20 7c0 0.6 0.4 1 1 1s1-0.4 1-1c0-0.6-0.4-1-1-1S20 6.4 20 7z"/>
  <path fill="#fff" d="M3 17c0 0.6 0.4 1 1 1s1-0.4 1-1c0-0.6-0.4-1-1-1S3 16.4 3 17zM20 17c0 0.6 0.4 1 1 1s1-0.4 1-1c0-0.6-0.4-1-1-1S20 16.4 20 17z"/>
  <path fill="#fff" d="M5 12c0 0.6 0.4 1 1 1h12c0.6 0 1-0.4 1-1s-0.4-1-1-1H6C5.4 11 5 11.4 5 12z"/>
  <path fill="#fff" d="M5 7c0 0.6 0.4 1 1 1h12c0.6 0 1-0.4 1-1s-0.4-1-1-1H6C5.4 6 5 6.4 5 7z"/>
  <path fill="#fff" d="M5 17c0 0.6 0.4 1 1 1h12c0.6 0 1-0.4 1-1s-0.4-1-1-1H6C5.4 16 5 16.4 5 17z"/>

</svg>