<svg xmlns="http://www.w3.org/2000/svg" viewBox="0 0 24 24" width="24" height="24">
  <defs>
    <linearGradient id="bg_render_preprocess" x1="0" y1="0" x2="1" y2="1">
      <stop offset="0%" stop-color="#475569"/>
      <stop offset="100%" stop-color="#64748b"/>
    </linearGradient>
  </defs>
  <rect width="24" height="24" rx="4" ry="4" fill="url(#bg_render_preprocess)"/>

  <path fill="#fff" d="M3 3h5v5H3z"/>
  <path fill="rgba(0,0,0,0.55)" d="M4 4h3v3H4z"/>
  <path fill="#fff" d="M3 9h5v5H3z"/>
  <path fill="rgba(0,0,0,0.55)" d="M4 10h3v3H4z"/>
  <path fill="#fff" d="M3 15h5v5H3z"/>
  <path fill="rgba(0,0,0,0.55)" d="M4 16h3v3H4z"/>
  <path fill="#fff" d="M16 3h5v5h-5z"/>
  <path fill="#fff" d="M14 5h7v7h-7z"/>
  <path fill="rgba(0,0,0,0.55)" d="M15 6h5v5h-5z"/>
  <path fill="#fff" d="M12 7h9v9h-9z"/>

</svg>