<svg xmlns="http://www.w3.org/2000/svg" viewBox="0 0 24 24" width="24" height="24">
  <defs>
    <linearGradient id="bg_multi_layer_grass" x1="0" y1="0" x2="1" y2="1">
      <stop offset="0%" stop-color="#b45309"/>
      <stop offset="100%" stop-color="#c17135"/>
    </linearGradient>
  </defs>
  <rect width="24" height="24" rx="4" ry="4" fill="url(#bg_multi_layer_grass)"/>

  <path fill="#fff" d="M3 18c0 1.1.9 2 2 2h14c1.1 0 2-.9 2-2v-4c0-1.1-.9-2-2-2H5c-1.1 0-2 .9-2 2v4z"/>
  <path fill="rgba(0,0,0,0.55)" d="M3 12c0 1.1.9 2 2 2h14c1.1 0 2-.9 2-2V8c0-1.1-.9-2-2-2H5c-1.1 0-2 .9-2 2v4z"/>
  <path fill="rgba(255,255,255,0.35)" d="M3 6c0 1.1.9 2 2 2h14c1.1 0 2-.9 2-2V2c0-1.1-.9-2-2-2H5c-1.1 0-2 .9-2 2v4z"/>

</svg>