<svg xmlns="http://www.w3.org/2000/svg" viewBox="0 0 24 24" width="24" height="24">
  <defs>
    <linearGradient id="bg_format_factory" x1="0" y1="0" x2="1" y2="1">
      <stop offset="0%" stop-color="#475569"/>
      <stop offset="100%" stop-color="#64748b"/>
    </linearGradient>
  </defs>
  <rect width="24" height="24" rx="4" ry="4" fill="url(#bg_format_factory)"/>

  <path fill="rgba(0,0,0,0.55)" d="M18 15.5c-.83 0-1.5.67-1.5 1.5s.67 1.5 1.5 1.5 1.5-.67 1.5-1.5-.67-1.5-1.5-1.5zM12 15.5c-.83 0-1.5.67-1.5 1.5s.67 1.5 1.5 1.5 1.5-.67 1.5-1.5-.67-1.5-1.5-1.5zM6 15.5c-.83 0-1.5.67-1.5 1.5s.67 1.5 1.5 1.5 1.5-.67 1.5-1.5-.67-1.5-1.5-1.5z"/>
  <path fill="#fff" d="M19.43 12.98c.04-.32.07-.64.07-.98s-.03-.66-.07-.98l2.11-1.65c.19-.15.24-.42.12-.64l-2.4-4.16c-.12-.22-.38-.3-.61-.22l-2.49 1c-.52-.4-1.08-.73-1.69-.98l-.38-2.65C13.96 2.7 13.69 2.5 13.43 2.5h-2.86c-.26 0-.53.2-.65.46l-.38 2.65c-.61.25-1.17.59-1.69.98l-2.49-1c-.23-.09-.49 0-.61.22L2.46 7.69c-.12.22-.07.49.12.64l2.11 1.65c-.04.32-.07.65-.07.98s.03.66.07.98l-2.11 1.65c-.19.15-.24.42-.12.64l2.4 4.16c.12.22.38.3.61.22l2.49-1c.52.4 1.08.73 1.69.98l.38 2.65c.12.27.39.47.65.47h2.86c.26 0 .53-.2.65-.46l.38-2.65c.61-.25 1.17-.59 1.69-.98l2.49 1c.23.09.49 0 .61-.22l2.4-4.16c.12-.22.07-.49-.12-.64l-2.11-1.65zM12 15.5c-1.93 0-3.5-1.57-3.5-3.5s1.57-3.5 3.5-3.5 3.5 1.57 3.5 3.5-1.57 3.5-3.5 3.5z"/>
  <rect fill="#fff" height="2" width="2" x="3" y="3"/>
  <rect fill="rgba(255,255,255,0.35)" height="2" width="2" x="5" y="3"/>
  <rect fill="#fff" height="2" width="2" x="3" y="5"/>
  <rect fill="rgba(255,255,255,0.35)" height="2" width="2" x="5" y="5"/>

</svg>