<svg xmlns="http://www.w3.org/2000/svg" viewBox="0 0 24 24" width="24" height="24">
  <defs>
    <linearGradient id="bg_islands_base_noise" x1="0" y1="0" x2="1" y2="1">
      <stop offset="0%" stop-color="#d97706"/>
      <stop offset="100%" stop-color="#df8f32"/>
    </linearGradient>
  </defs>
  <rect width="24" height="24" rx="4" ry="4" fill="url(#bg_islands_base_noise)"/>

  <path fill="#fff" d="M12,3 C7,3 3,7 3,12 C3,17 7,21 12,21 C17,21 21,17 21,12 C21,7 17,3 12,3 Z M12,5 C15.9,5 19,8.1 19,12 C19,15.9 15.9,19 12,19 C8.1,19 5,15.9 5,12 C5,8.1 8.1,5 12,5 Z"/>
  <path fill="rgba(0,0,0,0.55)" d="M12,7 C9.2,7 7,9.2 7,12 C7,14.8 9.2,17 12,17 C14.8,17 17,14.8 17,12 C17,9.2 14.8,7 12,7 Z M12,9 C13.7,9 15,10.3 15,12 C15,13.7 13.7,15 12,15 C10.3,15 9,13.7 9,12 C9,10.3 10.3,9 12,9 Z"/>
  <path fill="rgba(255,255,255,0.35)" d="M12,11 C11,11 10,12 10,13 C10,14 11,15 12,15 C13,15 14,14 14,13 C14,12 13,11 12,11 Z"/>

</svg>