<svg xmlns="http://www.w3.org/2000/svg" viewBox="0 0 24 24" width="24" height="24">
  <defs>
    <linearGradient id="bg_rule_indoor_wall_grid" x1="0" y1="0" x2="1" y2="1">
      <stop offset="0%" stop-color="#c2410c"/>
      <stop offset="100%" stop-color="#cc6337"/>
    </linearGradient>
  </defs>
  <rect width="24" height="24" rx="4" ry="4" fill="url(#bg_rule_indoor_wall_grid)"/>

  <path fill="rgba(0,0,0,0.55)" d="M2 2h20v20H2z" />
  <path fill="#fff" d="M4 4h4v4H4zM10 4h4v4h-4zM16 4h4v4h-4zM4 10h4v4H4zM10 10h4v4h-4zM16 10h4v4h-4zM4 16h4v4H4zM10 16h4v4h-4zM16 16h4v4h-4z" />

</svg>