<svg xmlns="http://www.w3.org/2000/svg" viewBox="0 0 24 24" width="24" height="24">
  <defs>
    <linearGradient id="bg_fermat_spiral_sampling" x1="0" y1="0" x2="1" y2="1">
      <stop offset="0%" stop-color="#9333ea"/>
      <stop offset="100%" stop-color="#a657ed"/>
    </linearGradient>
  </defs>
  <rect width="24" height="24" rx="4" ry="4" fill="url(#bg_fermat_spiral_sampling)"/>

  <path fill="#fff" d="M12 5c-3.9 0-7 3.1-7 7s3.1 7 7 7 7-3.1 7-7-3.1-7-7-7zm0 12c-2.8 0-5-2.2-5-5s2.2-5 5-5 5 2.2 5 5-2.2 5-5 5z"/>
  <circle cx="12" cy="12" r="1" fill="rgba(0,0,0,0.55)"/>
  <circle cx="12" cy="5" r=".5" fill="#fff"/>
  <circle cx="19" cy="12" r=".5" fill="#fff"/>
  <circle cx="12" cy="19" r=".5" fill="#fff"/>
  <circle cx="5" cy="12" r=".5" fill="#fff"/>

</svg>