<svg xmlns="http://www.w3.org/2000/svg" viewBox="0 0 24 24" width="24" height="24">
  <defs>
    <linearGradient id="bg_grid_furniture_gen" x1="0" y1="0" x2="1" y2="1">
      <stop offset="0%" stop-color="#6366f1"/>
      <stop offset="100%" stop-color="#7f81f3"/>
    </linearGradient>
  </defs>
  <rect width="24" height="24" rx="4" ry="4" fill="url(#bg_grid_furniture_gen)"/>

<rect x="4" y="4" width="3" height="3" fill="#fff"/>
<rect x="8" y="4" width="3" height="3" fill="#fff"/>
<rect x="12" y="4" width="3" height="3" fill="#fff"/>
<rect x="16" y="4" width="3" height="3" fill="#fff"/>
<rect x="4" y="8" width="3" height="3" fill="#fff"/>
<rect x="8" y="8" width="3" height="3" fill="#fff"/>
<rect x="12" y="8" width="3" height="3" fill="#fff"/>
<rect x="16" y="8" width="3" height="3" fill="#fff"/>
<rect x="4" y="12" width="3" height="3" fill="#fff"/>
<rect x="8" y="12" width="3" height="3" fill="#fff"/>
<rect x="12" y="12" width="3" height="3" fill="#fff"/>
<rect x="16" y="12" width="3" height="3" fill="#fff"/>
<rect x="4" y="16" width="3" height="3" fill="#fff"/>
<rect x="8" y="16" width="3" height="3" fill="#fff"/>
<rect x="12" y="16" width="3" height="3" fill="#fff"/>
<rect x="16" y="16" width="3" height="3" fill="#fff"/>
<rect x="17" y="17" width="2" height="2" fill="rgba(0,0,0,0.55)"/>
<rect x="20" y="17" width="2" height="2" fill="rgba(0,0,0,0.55)"/>
<rect x="17" y="20" width="2" height="2" fill="rgba(0,0,0,0.55)"/>
<rect x="20" y="20" width="2" height="2" fill="rgba(0,0,0,0.55)"/>

</svg>