<svg xmlns="http://www.w3.org/2000/svg" viewBox="0 0 24 24" width="24" height="24">
  <defs>
    <linearGradient id="bg_l_system" x1="0" y1="0" x2="1" y2="1">
      <stop offset="0%" stop-color="#0369a1"/>
      <stop offset="100%" stop-color="#3084b1"/>
    </linearGradient>
  </defs>
  <rect width="24" height="24" rx="4" ry="4" fill="url(#bg_l_system)"/>

  <path fill="#fff" d="M12,3 L12,7"/>
  <path fill="#fff" d="M12,7 L8,11"/>
  <path fill="#fff" d="M12,7 L16,11"/>
  <path fill="#fff" d="M8,11 L6,13"/>
  <path fill="#fff" d="M8,11 L10,13"/>
  <path fill="#fff" d="M16,11 L14,13"/>
  <path fill="#fff" d="M16,11 L18,13"/>
  <path fill="#fff" d="M6,13 L5,14"/>
  <path fill="#fff" d="M10,13 L9,14"/>
  <path fill="#fff" d="M14,13 L13,14"/>
  <path fill="#fff" d="M18,13 L19,14"/>
  <path fill="rgba(0,0,0,0.55)" d="M12,17 L12,21"/>
  <path fill="rgba(0,0,0,0.55)" d="M12,17 L8,13"/>
  <path fill="rgba(0,0,0,0.55)" d="M12,17 L16,13"/>

</svg>