<svg xmlns="http://www.w3.org/2000/svg" viewBox="0 0 24 24" width="24" height="24">
  <defs>
    <linearGradient id="bg_height_adjuster" x1="0" y1="0" x2="1" y2="1">
      <stop offset="0%" stop-color="#0f766e"/>
      <stop offset="100%" stop-color="#3a8e88"/>
    </linearGradient>
  </defs>
  <rect width="24" height="24" rx="4" ry="4" fill="url(#bg_height_adjuster)"/>

  <path fill="rgba(0,0,0,0.55)" d="M2 22h20v-2H2v2z"/>
  <path fill="#fff" d="M12 4c-3.3 0-6 2.7-6 6s6 10 6 10 6-4 6-10-2.7-6-6-6zm0 2c2.2 0 4 1.8 4 4s-4 7.3-4 7.3-4-3.3-4-7.3 1.8-4 4-4z"/>
  <path fill="rgba(255,255,255,0.35)" d="M12 7c-1.7 0-3 1.3-3 3s3 5.5 3 5.5 3-2.5 3-5.5-1.3-3-3-3zm0 1c1.1 0 2 0.9 2 2s-2 3.7-2 3.7-2-1.7-2-3.7 0.9-2 2-2z"/>

</svg>