<svg xmlns="http://www.w3.org/2000/svg" viewBox="0 0 24 24" width="24" height="24">
  <defs>
    <linearGradient id="bg_point_zone_gen" x1="0" y1="0" x2="1" y2="1">
      <stop offset="0%" stop-color="#0f766e"/>
      <stop offset="100%" stop-color="#3a8e88"/>
    </linearGradient>
  </defs>
  <rect width="24" height="24" rx="4" ry="4" fill="url(#bg_point_zone_gen)"/>

  <path fill="rgba(0,0,0,0.55)" d="M2 2 L22 2 L22 22 L2 2 Z M3 3 L21 3 L21 21 L3 21 Z M4 4 L20 4 L20 20 L4 20 Z M5 5 L19 5 L19 19 L5 5 Z"/>
  <path fill="#fff" d="M12 7 C11 7 10 7.3 10 8 C10 8.7 11 9 12 9 C13 9 14 8.7 14 8 C14 7.3 13 7 12 7 Z"/>
  <path fill="#fff" d="M7 12 C6 12 5.3 12.3 5.3 13 C5.3 13.7 6 14 7 14 C8 14 8.7 13.7 8.7 13 C8.7 12.3 8 12 7 12 Z"/>
  <path fill="#fff" d="M17 12 C16 12 15.3 12.3 15.3 13 C15.3 13.7 16 14 17 14 C18 14 18.7 13.7 18.7 13 C18.7 12.3 18 12 17 12 Z"/>
  <path fill="#fff" d="M12 17 C11 17 10 17.3 10 18 C10 18.7 11 19 12 19 C13 19 14 18.7 14 18 C14 17.3 13 17 12 17 Z"/>

</svg>