<svg xmlns="http://www.w3.org/2000/svg" viewBox="0 0 24 24" width="24" height="24">
  <defs>
    <linearGradient id="bg_alg_slime_mold" x1="0" y1="0" x2="1" y2="1">
      <stop offset="0%" stop-color="#c2410c"/>
      <stop offset="100%" stop-color="#cc6337"/>
    </linearGradient>
  </defs>
  <rect width="24" height="24" rx="4" ry="4" fill="url(#bg_alg_slime_mold)"/>

  <path fill="#fff" d="M12,4 C7.5,4 4,7.5 4,12 C4,16.5 7.5,20 12,20 C16.5,20 20,16.5 20,12 C20,7.5 16.5,4 12,4 Z M12,5 C15.9,5 19,8.1 19,12 C19,15.9 15.9,19 12,19 C8.1,19 5,15.9 5,12 C5,8.1 8.1,5 12,5 Z"/>
  <path fill="rgba(0,0,0,0.55)" d="M12,8 C11.4,8 11,8.4 11,9 L11,15 C11,15.6 11.4,16 12,16 C12.6,16 13,15.6 13,15 L13,9 C13,8.4 12.6,8 12,8 Z"/>
  <path fill="#fff" d="M9,12 C8.4,12 8,12.4 8,13 L8,14 C8,14.6 8.4,15 9,15 C9.6,15 10,14.6 10,14 L10,13 C10,12.4 9.6,12 9,12 Z"/>
  <path fill="#fff" d="M15,12 C14.4,12 14,12.4 14,13 L14,14 C14,14.6 14.4,15 15,15 C15.6,15 16,14.6 16,14 L16,13 C16,12.4 15.6,12 15,12 Z"/>

</svg>