<svg xmlns="http://www.w3.org/2000/svg" viewBox="0 0 24 24" width="24" height="24">
  <defs>
    <linearGradient id="bg_island_cozy_village" x1="0" y1="0" x2="1" y2="1">
      <stop offset="0%" stop-color="#6366f1"/>
      <stop offset="100%" stop-color="#818cf8"/>
    </linearGradient>
  </defs>
  <rect width="24" height="24" rx="4" ry="4" fill="url(#bg_island_cozy_village)"/>

  <path fill="rgba(0,0,0,0.55)" d="M12,2C6.48,2,2,6.48,2,12s4.48,10,10,10s10-4.48,10-10S17.52,2,12,2z M12,21c-4.97,0-9-4.03-9-9s4.03-9,9-9 s9,4.03,9,9S16.97,21,12,21z"/>
  <path fill="#fff" d="M17,10c0-2.76-2.24-5-5-5s-5,2.24-5,5c0,2.43,1.8,4.43,4.17,4.88C11.5,15.47,12,16.75,12,18h1 c0-1.25,0.5-2.53,0.83-3.12C15.2,14.43,17,12.43,17,10z"/>
  <rect x="9" y="8" width="6" height="2" fill="rgba(0,0,0,0.55)"/>
  <rect x="10" y="11" width="4" height="2" fill="rgba(0,0,0,0.55)"/>

</svg>