<svg xmlns="http://www.w3.org/2000/svg" viewBox="0 0 24 24" width="24" height="24">
  <defs>
    <linearGradient id="bg_cellular_automata" x1="0" y1="0" x2="1" y2="1">
      <stop offset="0%" stop-color="#a16207"/>
      <stop offset="100%" stop-color="#b17e33"/>
    </linearGradient>
  </defs>
  <rect width="24" height="24" rx="4" ry="4" fill="url(#bg_cellular_automata)"/>

  <path fill="#fff" d="M4 4h4v4H4V4zM16 4h4v4h-4V4zM4 16h4v4H4v-4zM16 16h4v4h-4v-4z"/>
  <path fill="rgba(0,0,0,0.55)" d="M10 4h4v4h-4V4zM4 10h4v4H4v-4zM16 10h4v4h-4v-4zM10 16h4v4h-4v-4z"/>
  <path fill="#fff" d="M12,2C6.48,2,2,6.48,2,12c0,5.52,4.48,10,10,10c5.52,0,10-4.48,10-10C22,6.48,17.52,2,12,2z M12,20 c-4.41,0-8-3.59-8-8c0-4.41,3.59-8,8-8c4.41,0,8,3.59,8,8C20,16.41,16.41,20,12,20z"/>

</svg>