<svg xmlns="http://www.w3.org/2000/svg" viewBox="0 0 24 24" width="24" height="24">
  <defs>
    <linearGradient id="bg_furniture_template_picker" x1="0" y1="0" x2="1" y2="1">
      <stop offset="0%" stop-color="#16a34a"/>
      <stop offset="100%" stop-color="#3fb36a"/>
    </linearGradient>
  </defs>
  <rect width="24" height="24" rx="4" ry="4" fill="url(#bg_furniture_template_picker)"/>

  <path fill="#fff" d="M3 3h4v18H3z"/>
  <path fill="rgba(0,0,0,0.55)" d="M4 4h2v2H4zm0 4h2v2H4zm0 4h2v2H4zm0 4h2v2H4z"/>
  <path fill="#fff" d="M10 11h4l4 4-4 4H10v-2h3.17L14 15l-0.83-1H10z"/>
  <path fill="#fff" d="M17 3h4v4h-4zM18 4h2v2h-2z"/>
  <path fill="#fff" d="M17 9h4v4h-4zM18 10h2v2h-2z"/>
  <path fill="#fff" d="M17 15h4v4h-4zM18 16h2v2h-2z"/>

</svg>