<svg xmlns="http://www.w3.org/2000/svg" viewBox="0 0 24 24" width="24" height="24">
  <defs>
    <linearGradient id="bg_grid_value_to_mask" x1="0" y1="0" x2="1" y2="1">
      <stop offset="0%" stop-color="#6366f1"/>
      <stop offset="100%" stop-color="#818cf8"/>
    </linearGradient>
  </defs>
  <rect width="24" height="24" rx="4" ry="4" fill="url(#bg_grid_value_to_mask)"/>

  <path fill="#fff" d="M3 3h6v6H3V3zM15 3h6v6h-6V3zM3 15h6v6H3v-6zM15 15h6v6h-6v-6z"/>
  <path fill="rgba(0,0,0,0.55)" d="M4 4h4v4H4V4zM16 4h4v4h-4V4zM4 16h4v4H4v-4zM16 16h4v4h-4v-4z"/>
  <path fill="#fff" d="M11 11h2v2h-2z"/>

</svg>