<svg xmlns="http://www.w3.org/2000/svg" viewBox="0 0 24 24" width="24" height="24" role="img" aria-label="Fan rotor part battery">
  <rect x="2.5" y="2.5" width="19" height="19" rx="5" fill="#10211d" stroke="#4f6f63" stroke-width="1.2"/>
  <g fill="#b7ff5a" fill-opacity=".2" stroke="#e7f5ee" stroke-width="1.3" stroke-linejoin="round">
    <path d="M12 12C12 8 13.4 5.4 15.6 6.1 17.6 6.7 16.2 10 12 12Z"/>
    <path d="M12 12C12 8 13.4 5.4 15.6 6.1 17.6 6.7 16.2 10 12 12Z" transform="rotate(90 12 12)"/>
    <path d="M12 12C12 8 13.4 5.4 15.6 6.1 17.6 6.7 16.2 10 12 12Z" transform="rotate(180 12 12)"/>
    <path d="M12 12C12 8 13.4 5.4 15.6 6.1 17.6 6.7 16.2 10 12 12Z" transform="rotate(270 12 12)"/>
  </g>
  <circle cx="12" cy="12" r="1.7" fill="#10211d" stroke="#e7f5ee" stroke-width="1.3"/>
</svg>
