<svg xmlns="http://www.w3.org/2000/svg" viewBox="0 0 24 24" width="24" height="24">
  <defs>
    <linearGradient id="bg_river_lake_gen" x1="0" y1="0" x2="1" y2="1">
      <stop offset="0%" stop-color="#b45309"/>
      <stop offset="100%" stop-color="#c17135"/>
    </linearGradient>
  </defs>
  <rect width="24" height="24" rx="4" ry="4" fill="url(#bg_river_lake_gen)"/>

  <path fill="#fff" d="M2 21h20V3H2v18z"/>
  <path fill="rgba(0,0,0,0.55)" d="M2 21h20V3H2v18z" opacity="0.15"/>
  <path fill="#fff" d="M3 18c1.5 0 3-1 3-3s-1.5-3-3-3v6zm15-6c-1.5 0-3 1-3 3s1.5 3 3 3v-6z"/>
  <path fill="rgba(255,255,255,0.35)" d="M6 15c0 1.1.9 2 2 2h8c1.1 0 2-.9 2-2v-2H6v2z"/>

</svg>