<svg xmlns="http://www.w3.org/2000/svg" viewBox="0 0 24 24" width="24" height="24">
  <defs>
    <linearGradient id="bg_grid_resize" x1="0" y1="0" x2="1" y2="1">
      <stop offset="0%" stop-color="#be185d"/>
      <stop offset="100%" stop-color="#c9417a"/>
    </linearGradient>
  </defs>
  <rect width="24" height="24" rx="4" ry="4" fill="url(#bg_grid_resize)"/>

  <rect x="3" y="3" width="6" height="6" fill="#fff" />
  <path d="M3 3H5V5H3z" fill="rgba(0,0,0,0.55)" />
  <path d="M3 7H5V9H3z" fill="rgba(0,0,0,0.55)" />
  <path d="M7 3H9V5H7z" fill="rgba(0,0,0,0.55)" />
  <path d="M7 7H9V9H7z" fill="rgba(0,0,0,0.55)" />
  <path d="M11 6 L15 6 L15 7 L12 7 L12 17 L15 17 L15 18 L11 18 L11 17 L14 17 L14 7 L11 7z" fill="#000"/>
  <rect x="15" y="15" width="6" height="6" fill="#fff" />
  <path d="M15 15H16.5V16.5H15z" fill="rgba(0,0,0,0.55)" />
  <path d="M15 17.5H16.5V19H15z" fill="rgba(0,0,0,0.55)" />
  <path d="M17.5 15H19V16.5H17.5z" fill="rgba(0,0,0,0.55)" />
  <path d="M17.5 17.5H19V19H17.5z" fill="rgba(0,0,0,0.55)" />
  <path d="M15 15H16V16H15z" fill="rgba(255,255,255,0.35)" />
  <path d="M15 18H16V19H15z" fill="rgba(255,255,255,0.35)" />
  <path d="M18 15H19V16H18z" fill="rgba(255,255,255,0.35)" />
  <path d="M18 18H19V19H18z" fill="rgba(255,255,255,0.35)" />

</svg>