<svg xmlns="http://www.w3.org/2000/svg" viewBox="0 0 24 24" width="24" height="24">
  <defs>
    <linearGradient id="bg_random_walk" x1="0" y1="0" x2="1" y2="1">
      <stop offset="0%" stop-color="#c2410c"/>
      <stop offset="100%" stop-color="#cc6337"/>
    </linearGradient>
  </defs>
  <rect width="24" height="24" rx="4" ry="4" fill="url(#bg_random_walk)"/>

  <path fill="rgba(0,0,0,0.55)" d="M3 18c0-1.1.9-2 2-2s2 .9 2 2-.9 2-2 2-2-.9-2-2zm6-8c0-1.1.9-2 2-2s2 .9 2 2-.9 2-2 2-2-.9-2-2zm6 8c0-1.1.9-2 2-2s2 .9 2 2-.9 2-2 2-2-.9-2-2z"/>
  <path fill="#fff" d="M3 6c0-1.1.9-2 2-2s2 .9 2 2-.9 2-2 2-2-.9-2-2zm6 8c0-1.1.9-2 2-2s2 .9 2 2-.9 2-2 2-2-.9-2-2zm6-8c0-1.1.9-2 2-2s2 .9 2 2-.9 2-2 2-2-.9-2-2z"/>
  <path fill="rgba(255,255,255,0.35)" d="M3 12c0-1.1.9-2 2-2s2 .9 2 2-.9 2-2 2-2-.9-2-2zm12 6c0-1.1.9-2 2-2s2 .9 2 2-.9 2-2 2-2-.9-2-2z"/>

</svg>