<svg xmlns="http://www.w3.org/2000/svg" viewBox="0 0 24 24" width="24" height="24">
  <defs>
    <linearGradient id="bg_wang_tile" x1="0" y1="0" x2="1" y2="1">
      <stop offset="0%" stop-color="#0369a1"/>
      <stop offset="100%" stop-color="#3084b1"/>
    </linearGradient>
  </defs>
  <rect width="24" height="24" rx="4" ry="4" fill="url(#bg_wang_tile)"/>

  <rect x="3" y="3" width="8" height="8" rx="1" fill="#fff" opacity="0.9"/>
  <rect x="13" y="3" width="8" height="8" rx="1" fill="#fff" opacity="0.9"/>
  <rect x="3" y="13" width="8" height="8" rx="1" fill="#fff" opacity="0.9"/>
  <rect x="13" y="13" width="8" height="8" rx="1" fill="#fff" opacity="0.9"/>

  <rect x="6" y="3" width="2" height="1" fill="#f97316"/>
  <rect x="16" y="3" width="2" height="1" fill="#f97316"/>
  <rect x="3" y="6" width="1" height="2" fill="#f97316"/>
  <rect x="10" y="6" width="1" height="2" fill="#22c55e"/>
  <rect x="13" y="6" width="1" height="2" fill="#22c55e"/>
  <rect x="20" y="6" width="1" height="2" fill="#f97316"/>
  <rect x="6" y="10" width="2" height="1" fill="#22c55e"/>
  <rect x="16" y="10" width="2" height="1" fill="#f97316"/>
  <rect x="6" y="13" width="2" height="1" fill="#22c55e"/>
  <rect x="16" y="13" width="2" height="1" fill="#f97316"/>
  <rect x="3" y="16" width="1" height="2" fill="#22c55e"/>
  <rect x="10" y="16" width="1" height="2" fill="#f97316"/>
  <rect x="13" y="16" width="1" height="2" fill="#f97316"/>
  <rect x="20" y="16" width="1" height="2" fill="#22c55e"/>
  <rect x="6" y="20" width="2" height="1" fill="#f97316"/>
  <rect x="16" y="20" width="2" height="1" fill="#22c55e"/>
</svg>
