<svg xmlns="http://www.w3.org/2000/svg" viewBox="0 0 24 24" width="24" height="24">
  <defs>
    <linearGradient id="bg_image_preview" x1="0" y1="0" x2="1" y2="1">
      <stop offset="0%" stop-color="#475569"/>
      <stop offset="100%" stop-color="#64748b"/>
    </linearGradient>
  </defs>
  <rect width="24" height="24" rx="4" ry="4" fill="url(#bg_image_preview)"/>

  <path fill="rgba(0,0,0,0.55)" d="M2 2H22V22H2V2ZM3 3H21V21H3V3Z"/>
  <rect x="5" y="5" width="14" height="8" fill="#fff"/>
  <path fill="rgba(0,0,0,0.55)" d="M5 13H19V19H5V13ZM6 14H18V18H6V14Z"/>
  <path fill="#fff" d="M16 16C16 15.4477 15.5523 15 15 15C14.4477 15 14 15.4477 14 16C14 16.5523 14.4477 17 15 17C15.5523 17 16 16.5523 16 16Z"/>
  <path fill="#fff" d="M11 16C11 15.4477 10.5523 15 10 15C9.44771 15 9 15.4477 9 16C9 16.5523 9.44771 17 10 17C10.5523 17 11 16.5523 11 16Z"/>

</svg>