<svg xmlns="http://www.w3.org/2000/svg" viewBox="0 0 24 24" width="24" height="24">
  <defs>
    <linearGradient id="bg_diamond_square" x1="0" y1="0" x2="1" y2="1">
      <stop offset="0%" stop-color="#15803d"/>
      <stop offset="100%" stop-color="#3f965f"/>
    </linearGradient>
  </defs>
  <rect width="24" height="24" rx="4" ry="4" fill="url(#bg_diamond_square)"/>

  <path fill="#fff" d="M3 18h2v2H3v-2zM6 15h2v2H6v-2zM9 12h2v2H9v-2zM12 9h2v2h-2V9zM15 12h2v2h-2v-2zM18 15h2v2h-2v-2zM21 18h2v2h-2v-2z"/>
  <path fill="rgba(0,0,0,0.55)" d="M5 20h2v2H5v-2zM8 17h2v2H8v-2zM11 14h2v2h-2v-2zM14 11h2v2h-2v-2zM17 14h2v2h-2v-2zM20 17h2v2h-2v-2z"/>
  <path fill="#fff" d="M3 14h2v2H3v-2zM6 11h2v2H6v-2zM9 8h2v2H9v-2zM12 5h2v2h-2V5zM15 8h2v2h-2v-2zM18 11h2v2h-2v-2zM21 14h2v2h-2v-2z"/>
  <path fill="rgba(0,0,0,0.55)" d="M5 16h2v2H5v-2zM8 13h2v2H8v-2zM11 10h2v2h-2v-2zM14 7h2v2h-2V7zM17 10h2v2h-2v-2zM20 13h2v2h-2v-2z"/>
  <path fill="#fff" d="M3 10h2v2H3v-2zM6 7h2v2H6v-2zM9 4h2v2H9V4zM12 1h2v2h-2V1zM15 4h2v2h-2V4zM18 7h2v2h-2v-2zM21 10h2v2h-2v-2z"/>

</svg>