<svg xmlns="http://www.w3.org/2000/svg" viewBox="0 0 24 24" width="24" height="24">
  <defs>
    <linearGradient id="bg_tess_herringbone" x1="0" y1="0" x2="1" y2="1">
      <stop offset="0%" stop-color="#0891b2"/>
      <stop offset="100%" stop-color="#34a4bf"/>
    </linearGradient>
  </defs>
  <rect width="24" height="24" rx="4" ry="4" fill="url(#bg_tess_herringbone)"/>

  <path fill="#fff" d="M2 3h6v4H2V3zM16 3h6v4h-6V3zM9 3h6v4H9V3zM2 9h6v4H2V9zM16 9h6v4h-6V9zM9 9h6v4H9V9zM2 15h6v4H2v-4zM16 15h6v4h-6v-4zM9 15h6v4H9v-4zM2 21h6v1H2v-1zM16 21h6v1h-6v-1zM9 21h6v1H9v-1z"/>
  <path fill="rgba(0,0,0,0.55)" d="M2 3h1v1H2V3zM16 3h1v1h-1V3zM9 3h1v1H9V3zM2 9h1v1H2V9zM16 9h1v1h-1V9zM9 9h1v1H9V9zM2 15h1v1H2v-1zM16 15h1v1h-1v-1zM9 15h1v1H9v-1zM2 21h1v1H2v-1zM16 21h1v1h-1v-1zM9 21h1v1H9v-1z"/>

</svg>