<svg xmlns="http://www.w3.org/2000/svg" viewBox="0 0 24 24" width="24" height="24">
  <defs>
    <linearGradient id="bg_autotile_template" x1="0" y1="0" x2="1" y2="1">
      <stop offset="0%" stop-color="#1d4ed8"/>
      <stop offset="100%" stop-color="#06b6d4"/>
    </linearGradient>
  </defs>
  <rect width="24" height="24" rx="4" ry="4" fill="url(#bg_autotile_template)"/>

  <rect x="4" y="4" width="16" height="16" rx="2" fill="rgba(255,255,255,0.14)"/>
  <path d="M8 4v16M12 4v16M16 4v16M4 8h16M4 12h16M4 16h16" stroke="rgba(255,255,255,0.65)" stroke-width="1"/>

  <path d="M12 7l3.5 2v4L12 15l-3.5-2V9L12 7z" fill="#ffffff"/>
  <circle cx="12" cy="11" r="1.4" fill="#0ea5e9"/>

  <path d="M18.2 16.6l1.2-.7.7 1.2-1.2.7v1.4h-1.4v-1.4l-1.2-.7.7-1.2 1.2.7z" fill="#ffffff"/>
</svg>
