<svg xmlns="http://www.w3.org/2000/svg" viewBox="0 0 24 24" width="24" height="24">
  <defs>
    <linearGradient id="bg_natural_decoration" x1="0" y1="0" x2="1" y2="1">
      <stop offset="0%" stop-color="#b45309"/>
      <stop offset="100%" stop-color="#c17135"/>
    </linearGradient>
  </defs>
  <rect width="24" height="24" rx="4" ry="4" fill="url(#bg_natural_decoration)"/>

  <path fill="rgba(0,0,0,0.55)" d="M2 2v20h20V2H2zm1 1h18v18H3V3z"/>
  <rect x="4" y="4" width="16" height="16" fill="#fff"/>
  <path fill="rgba(0,0,0,0.55)" d="M7 7h2v2H7zm6 8h2v2h-2z"/>
  <path fill="#fff" d="M15 7l1 2-1 2h-2l-1-2 1-2zM7 15l1 2-1 2h-2l-1-2 1-2z"/>
  <circle cx="10" cy="16" r="1" fill="rgba(255,255,255,0.35)"/>
  <circle cx="18" cy="6" r="1" fill="rgba(255,255,255,0.35)"/>

</svg>