<svg xmlns="http://www.w3.org/2000/svg" viewBox="0 0 24 24" width="24" height="24">
  <defs>
    <linearGradient id="bg_grid_fill_ones" x1="0" y1="0" x2="1" y2="1">
      <stop offset="0%" stop-color="#0f766e"/>
      <stop offset="100%" stop-color="#3a8e88"/>
    </linearGradient>
  </defs>
  <rect width="24" height="24" rx="4" ry="4" fill="url(#bg_grid_fill_ones)"/>

  <path fill="#fff" d="M3 3h5v5H3zM3 9h5v5H3zM3 15h5v5H3z"/>
  <path fill="rgba(0,0,0,0.55)" d="M9 3h5v5H9zM9 9h5v5H9zM9 15h5v5H9z"/>
  <path fill="#fff" d="M15 3h6v6h-6zM15 9h6v6h-6zM15 15h6v6h-6z"/>
  <path fill="rgba(0,0,0,0.55)" d="M11.5 11.5l2-1.5v4z"/>

</svg>