<svg xmlns="http://www.w3.org/2000/svg" viewBox="0 0 24 24" width="24" height="24">
  <defs>
    <linearGradient id="bg_reaction_diffusion" x1="0" y1="0" x2="1" y2="1">
      <stop offset="0%" stop-color="#0f766e"/>
      <stop offset="100%" stop-color="#3a8e88"/>
    </linearGradient>
  </defs>
  <rect width="24" height="24" rx="4" ry="4" fill="url(#bg_reaction_diffusion)"/>

  <path fill="#fff" d="M5 5h14v14h-14z" />
  <path fill="rgba(0,0,0,0.55)" d="M7 7c0.8 0 1.3 0.5 1.3 1.3 0 0.8-0.5 1.3-1.3 1.3-0.8 0-1.3-0.5-1.3-1.3 0-0.8 0.5-1.3 1.3-1.3zM17 7c0.8 0 1.3 0.5 1.3 1.3 0 0.8-0.5 1.3-1.3 1.3-0.8 0-1.3-0.5-1.3-1.3 0-0.8 0.5-1.3 1.3-1.3zM7 17c0.8 0 1.3 0.5 1.3 1.3 0 0.8-0.5 1.3-1.3 1.3-0.8 0-1.3-0.5-1.3-1.3 0-0.8 0.5-1.3 1.3-1.3zM17 17c0.8 0 1.3 0.5 1.3 1.3 0 0.8-0.5 1.3-1.3 1.3-0.8 0-1.3-0.5-1.3-1.3 0-0.8 0.5-1.3 1.3-1.3z" />
  <path fill="rgba(0,0,0,0.55)" d="M12 12c0.5 0 0.8 0.3 0.8 0.8 0 0.5-0.3 0.8-0.8 0.8-0.5 0-0.8-0.3-0.8-0.8 0-0.5 0.3-0.8 0.8-0.8z" />

</svg>