<svg xmlns="http://www.w3.org/2000/svg" viewBox="0 0 24 24" width="24" height="24" role="img" aria-label="Inertial from geometry util battery">
  <rect x="2.5" y="2.5" width="19" height="19" rx="5" fill="#10211d" stroke="#4f6f63" stroke-width="1.2"/>
  <path d="M12 4.8 18.6 8.6 12 12.4 5.4 8.6Z M5.4 8.6 12 12.4v6.8L5.4 15.4Z M18.6 8.6 12 12.4v6.8l6.6-3.8Z" fill="none" stroke="#e7f5ee" stroke-width="1.3" stroke-linejoin="round" opacity=".75"/>
  <path d="M12 9.6A2.4 2.4 0 0 1 12 14.4 2.4 2.4 0 0 1 12 9.6Z" fill="#10211d"/>
  <path d="M12 9.6a2.4 2.4 0 0 1 2.4 2.4H12Zm0 4.8a2.4 2.4 0 0 1-2.4-2.4H12Z" fill="#b7ff5a"/>
  <circle cx="12" cy="12" r="2.4" fill="none" stroke="#e7f5ee" stroke-width="1.3"/>
</svg>
