<svg xmlns="http://www.w3.org/2000/svg" viewBox="0 0 24 24" width="24" height="24">
  <defs>
    <linearGradient id="bg_cosmos_terrain_gen" x1="0" y1="0" x2="1" y2="1">
      <stop offset="0%" stop-color="#a16207"/>
      <stop offset="100%" stop-color="#b17e33"/>
    </linearGradient>
  </defs>
  <rect width="24" height="24" rx="4" ry="4" fill="url(#bg_cosmos_terrain_gen)"/>

  <path fill="#fff" d="M12,2C6.48,2,2,6.48,2,12s4.48,10,10,10s10-4.48,10-10S17.52,2,12,2z M12,20c-4.41,0-8-3.59-8-8s3.59-8,8-8 s8,3.59,8,8S16.41,20,12,20z"/>
  <path fill="rgba(0,0,0,0.55)" d="M17,12c0,2.76-2.24,5-5,5s-5-2.24-5-5s2.24-5,5-5S17,9.24,17,12z M13,12c0-0.55-0.45-1-1-1s-1,0.45-1,1 s0.45,1,1,1S13,12.55,13,12z"/>
  <path fill="rgba(255,255,255,0.35)" d="M12,5c-3.86,0-7,3.14-7,7s3.14,7,7,7s7-3.14,7-7S15.86,5,12,5z M12,17c-2.76,0-5-2.24-5-5 s2.24-5,5-5s5,2.24,5,5S14.76,17,12,17z"/>

</svg>