<svg xmlns="http://www.w3.org/2000/svg" viewBox="0 0 24 24" width="24" height="24">
  <defs>
    <linearGradient id="bg_zone_nesting" x1="0" y1="0" x2="1" y2="1">
      <stop offset="0%" stop-color="#b45309"/>
      <stop offset="100%" stop-color="#c17135"/>
    </linearGradient>
  </defs>
  <rect width="24" height="24" rx="4" ry="4" fill="url(#bg_zone_nesting)"/>

  <path fill="#fff" d="M12,3 L3,9 L3,15 C3,19.418278,6.581722,23,11,23 L13,23 C17.418278,23,21,19.418278,21,15 L21,9 L12,3 Z"/>
  <path fill="rgba(0,0,0,0.55)" d="M12,2 L2,8 L2,14 C2,18.418278,5.581722,22,10,22 L14,22 C18.418278,22,22,18.418278,22,14 L22,8 L12,2 Z"/>
  <path fill="rgba(255,255,255,0.35)" d="M12,4 L4,9 L4,14 C4,17.313708,6.686292,20,10,20 L14,20 C17.313708,20,20,17.313708,20,14 L20,9 L12,4 Z"/>

</svg>
