<svg xmlns="http://www.w3.org/2000/svg" viewBox="0 0 24 24" width="24" height="24">
  <defs>
    <linearGradient id="bg_furniture_rank_split" x1="0" y1="0" x2="1" y2="1">
      <stop offset="0%" stop-color="#16a34a"/>
      <stop offset="100%" stop-color="#3fb36a"/>
    </linearGradient>
  </defs>
  <rect width="24" height="24" rx="4" ry="4" fill="url(#bg_furniture_rank_split)"/>

  <path fill="#fff" d="M3 4h18v2H3z"/>
  <path fill="#fff" d="M3 7h5v5H3z"/>
  <path fill="#fff" d="M9 7h5v5H9z"/>
  <path fill="#fff" d="M15 7h6v5h-6z"/>
  <path fill="#fff" d="M3 13h5v3H3z"/>
  <path fill="#fff" d="M9 13h5v3H9z"/>
  <path fill="#fff" d="M15 13h6v3h-6z"/>
  <path fill="rgba(0,0,0,0.55)" d="M3 17h18v1H3z"/>
  <path fill="#fff" d="M6 19h5v3H6z"/>
  <path fill="#fff" d="M13 19h5v3h-5z"/>

</svg>