<svg xmlns="http://www.w3.org/2000/svg" viewBox="0 0 24 24" width="24" height="24">
  <defs>
    <linearGradient id="bg_name_entry_gen" x1="0" y1="0" x2="1" y2="1">
      <stop offset="0%" stop-color="#6366f1"/>
      <stop offset="100%" stop-color="#7f81f3"/>
    </linearGradient>
  </defs>
  <rect width="24" height="24" rx="4" ry="4" fill="url(#bg_name_entry_gen)"/>

  <path fill="#fff" d="M4 3h16a1 1 0 0 1 1 1v16a1 1 0 0 1-1 1H4a1 1 0 0 1-1-1V4a1 1 0 0 1 1-1z"/>
  <path fill="rgba(0,0,0,0.55)" d="M7 5h2v2H7zm0 4h8v2H7zm0 4h5v2H7z"/>
  <path fill="rgba(255,255,255,0.35)" d="M15 5h2v2h-2z"/>

</svg>