<svg xmlns="http://www.w3.org/2000/svg" viewBox="0 0 24 24" width="24" height="24">
  <defs>
    <linearGradient id="bg_list_explode" x1="0" y1="0" x2="1" y2="1">
      <stop offset="0%" stop-color="#7c3aed"/>
      <stop offset="100%" stop-color="#935df0"/>
    </linearGradient>
  </defs>
  <rect width="24" height="24" rx="4" ry="4" fill="url(#bg_list_explode)"/>

  <path fill="#fff" d="M4 4h10v16H4z"/>
  <path fill="rgba(0,0,0,0.55)" d="M4 4h10v2H4z"/>
  <path fill="rgba(0,0,0,0.55)" d="M4 18h10v2H4z"/>
  <path fill="rgba(255,255,255,0.35)" d="M5 5h8v14H5z"/>
  <path fill="#fff" d="m14 12 2 2 4-3-4-3-2 2zm4-3 1 1 1-1-1-1-1 1z"/>
  <path fill="#fff" d="m14 7 2 2 4-3-2-2-4 3zm4-3 1 1 1-1-1-1-1 1z"/>
  <path fill="#fff" d="m14 17 2 2 4-3-2-2-4 3zm4-3 1 1 1-1-1-1-1 1z"/>

</svg>