<svg xmlns="http://www.w3.org/2000/svg" viewBox="0 0 24 24" width="24" height="24">
  <defs>
    <linearGradient id="bg_grid_json_to_size" x1="0" y1="0" x2="1" y2="1">
      <stop offset="0%" stop-color="#6366f1"/>
      <stop offset="100%" stop-color="#818cf8"/>
    </linearGradient>
  </defs>
  <rect width="24" height="24" rx="4" ry="4" fill="url(#bg_grid_json_to_size)"/>
  <!-- ╣<Q< -->
  <rect x="3.5" y="4.5" width="11" height="11" rx="1" fill="rgba(0,0,0,0.38)" stroke="#fff" stroke-width="0.75"/>
  <path stroke="rgba(255,255,255,0.82)" stroke-width="0.65" d="M7.17 4.5v11M10.83 4.5v11M3.5 7.83h11M3.5 11.17h11"/>
  <!-- ž«<h: JSON pn	 -->
  <rect x="7.17" y="7.83" width="3.66" height="3.34" fill="#fff" opacity="0.9"/>
  <!-- Į”:°Ł4 -->
  <path fill="#fff" d="M3.5 18.2h11"/>
  <path fill="#fff" d="M3.5 17.4l-.75 1 .75 1zM14.5 17.4l.75 1-.75 1z"/>
  <!-- ž”:°Ł4 -->
  <path fill="#fff" d="M17.2 4.5v11"/>
  <path fill="#fff" d="M16.4 4.5l1 .75-1 .75zM16.4 15.5l1-.75-1-.75z"/>
  <!-- JSON ▒ņ„ę -->
  <path fill="#fff" opacity="0.92" d="M19.2 17.8c-.42 0-.72.28-.72.66v1.1c0 .3-.14.55-.35.7.21.15.35.4.35.7v1.1c0 .38.3.66.72.66h.55v-.7h-.22c-.22 0-.37-.15-.37-.35v-1.3c0-.36-.14-.7-.4-.92.26-.22.4-.56.4-.92v-1.3c0-.2.15-.35.37-.35h.22v-.7h-.55z"/>
</svg>
