<svg xmlns="http://www.w3.org/2000/svg" viewBox="0 0 24 24" width="24" height="24">
  <defs>
    <linearGradient id="bg_rect_zone_gen" x1="0" y1="0" x2="1" y2="1">
      <stop offset="0%" stop-color="#1d4ed8"/>
      <stop offset="100%" stop-color="#456ddf"/>
    </linearGradient>
  </defs>
  <rect width="24" height="24" rx="4" ry="4" fill="url(#bg_rect_zone_gen)"/>

  <rect x="3" y="3" width="1" height="1" fill="rgba(0,0,0,0.55)" />
  <rect x="6" y="3" width="1" height="1" fill="rgba(0,0,0,0.55)" />
  <rect x="9" y="3" width="1" height="1" fill="rgba(0,0,0,0.55)" />
  <rect x="12" y="3" width="1" height="1" fill="rgba(0,0,0,0.55)" />
  <rect x="15" y="3" width="1" height="1" fill="rgba(0,0,0,0.55)" />
  <rect x="18" y="3" width="1" height="1" fill="rgba(0,0,0,0.55)" />
  <rect x="21" y="3" width="1" height="1" fill="rgba(0,0,0,0.55)" />
  <rect x="3" y="6" width="1" height="1" fill="rgba(0,0,0,0.55)" />
  <rect x="6" y="6" width="1" height="1" fill="rgba(0,0,0,0.55)" />
  <rect x="9" y="6" width="1" height="1" fill="rgba(0,0,0,0.55)" />
  <rect x="12" y="6" width="1" height="1" fill="rgba(0,0,0,0.55)" />
  <rect x="15" y="6" width="1" height="1" fill="rgba(0,0,0,0.55)" />
  <rect x="18" y="6" width="1" height="1" fill="rgba(0,0,0,0.55)" />
  <rect x="21" y="6" width="1" height="1" fill="rgba(0,0,0,0.55)" />
  <rect x="3" y="9" width="1" height="1" fill="rgba(0,0,0,0.55)" />
  <rect x="6" y="9" width="1" height="1" fill="rgba(0,0,0,0.55)" />
  <rect x="9" y="9" width="1" height="1" fill="rgba(0,0,0,0.55)" />
  <rect x="12" y="9" width="1" height="1" fill="rgba(0,0,0,0.55)" />
  <rect x="15" y="9" width="1" height="1" fill="rgba(0,0,0,0.55)" />
  <rect x="18" y="9" width="1" height="1" fill="rgba(0,0,0,0.55)" />
  <rect x="21" y="9" width="1" height="1" fill="rgba(0,0,0,0.55)" />
  <rect x="3" y="12" width="1" height="1" fill="rgba(0,0,0,0.55)" />
  <rect x="6" y="12" width="1" height="1" fill="rgba(0,0,0,0.55)" />
  <rect x="9" y="12" width="1" height="1" fill="rgba(0,0,0,0.55)" />
  <rect x="12" y="12" width="1" height="1" fill="rgba(0,0,0,0.55)" />
  <rect x="15" y="12" width="1" height="1" fill="rgba(0,0,0,0.55)" />
  <rect x="18" y="12" width="1" height="1" fill="rgba(0,0,0,0.55)" />
  <rect x="21" y="12" width="1" height="1" fill="rgba(0,0,0,0.55)" />
  <rect x="3" y="15" width="1" height="1" fill="rgba(0,0,0,0.55)" />
  <rect x="6" y="15" width="1" height="1" fill="rgba(0,0,0,0.55)" />
  <rect x="9" y="15" width="1" height="1" fill="rgba(0,0,0,0.55)" />
  <rect x="12" y="15" width="1" height="1" fill="rgba(0,0,0,0.55)" />
  <rect x="15" y="15" width="1" height="1" fill="rgba(0,0,0,0.55)" />
  <rect x="18" y="15" width="1" height="1" fill="rgba(0,0,0,0.55)" />
  <rect x="21" y="15" width="1" height="1" fill="rgba(0,0,0,0.55)" />
  <rect x="3" y="18" width="1" height="1" fill="rgba(0,0,0,0.55)" />
  <rect x="6" y="18" width="1" height="1" fill="rgba(0,0,0,0.55)" />
  <rect x="9" y="18" width="1" height="1" fill="rgba(0,0,0,0.55)" />
  <rect x="12" y="18" width="1" height="1" fill="rgba(0,0,0,0.55)" />
  <rect x="15" y="18" width="1" height="1" fill="rgba(0,0,0,0.55)" />
  <rect x="18" y="18" width="1" height="1" fill="rgba(0,0,0,0.55)" />
  <rect x="21" y="18" width="1" height="1" fill="rgba(0,0,0,0.55)" />
  <rect x="3" y="21" width="1" height="1" fill="rgba(0,0,0,0.55)" />
  <rect x="6" y="21" width="1" height="1" fill="rgba(0,0,0,0.55)" />
  <rect x="9" y="21" width="1" height="1" fill="rgba(0,0,0,0.55)" />
  <rect x="12" y="21" width="1" height="1" fill="rgba(0,0,0,0.55)" />
  <rect x="15" y="21" width="1" height="1" fill="rgba(0,0,0,0.55)" />
  <rect x="18" y="21" width="1" height="1" fill="rgba(0,0,0,0.55)" />
  <rect x="21" y="21" width="1" height="1" fill="rgba(0,0,0,0.55)" />
  <rect x="5" y="5" width="3" height="3" fill="#fff" />
  <rect x="10" y="10" width="5" height="3" fill="#fff" />
  <rect x="17" y="14" width="3" height="5" fill="#fff" />

</svg>