<svg xmlns="http://www.w3.org/2000/svg" viewBox="0 0 24 24" width="24" height="24">
  <defs>
    <linearGradient id="bg_wfc_tile_solver" x1="0" y1="0" x2="1" y2="1">
      <stop offset="0%" stop-color="#0369a1"/>
      <stop offset="100%" stop-color="#3084b1"/>
    </linearGradient>
  </defs>
  <rect width="24" height="24" rx="4" ry="4" fill="url(#bg_wfc_tile_solver)"/>

  <path fill="#fff" d="M2 2v6h6v-6h-6zm0 8v6h6v-6h-6zm8-8v6h6v-6h-6zm0 8v6h6v-6h-6zm8-8v6h6v-6h-6zm0 8v6h6v-6h-6zm0 8v4h4v-4h-4zm-8 0v4h4v-4h-4zm-8 0v4h4v-4h-4z"/>
  <path fill="rgba(0,0,0,0.55)" d="M3 3h2v2h-2v-2zm0 9h2v2h-2v-2zm9-9h2v2h-2v-2zm0 9h2v2h-2v-2zm9-9h2v2h-2v-2zm0 9h2v2h-2v-2zm0 9h2v2h-2v-2zm-9 0h2v2h-2v-2zm-9 0h2v2h-2v-2z"/>

</svg>