<svg xmlns="http://www.w3.org/2000/svg" viewBox="0 0 24 24" width="24" height="24">
  <defs>
    <linearGradient id="bg_tess_sym_deform" x1="0" y1="0" x2="1" y2="1">
      <stop offset="0%" stop-color="#0891b2"/>
      <stop offset="100%" stop-color="#34a4bf"/>
    </linearGradient>
  </defs>
  <rect width="24" height="24" rx="4" ry="4" fill="url(#bg_tess_sym_deform)"/>

  <path fill="#fff" d="M3 12l3.5-6 3.5-1 3.5 1 3.5 6-3.5 6-3.5 1-3.5-1z"/>
  <path fill="rgba(0,0,0,0.55)" d="M13 12l2.5-4 2.5-.5 2.5.5 2.5 4-2.5 4-2.5.5-2.5-.5z"/>
  <path fill="#fff" d="M16 12c0 2.2-1.8 4-4 4s-4-1.8-4-4 1.8-4 4-4 4 1.8 4 4z"/>
  <path fill="rgba(0,0,0,0.55)" d="M12 12c0 1.1.9 2 2 2s2-.9 2-2-.9-2-2-2-2 .9-2 2z"/>
  <path fill="#fff" d="M17 17c0 1.7 1.3 3 3 3s3-1.3 3-3-1.3-3-3-3-3 1.3-3 3z"/>

</svg>