<svg xmlns="http://www.w3.org/2000/svg" viewBox="0 0 24 24" width="24" height="24">
  <defs>
    <linearGradient id="bg_ring_zone_scatter" x1="0" y1="0" x2="1" y2="1">
      <stop offset="0%" stop-color="#7c3aed"/>
      <stop offset="100%" stop-color="#935df0"/>
    </linearGradient>
  </defs>
  <rect width="24" height="24" rx="4" ry="4" fill="url(#bg_ring_zone_scatter)"/>

  <path fill="rgba(0,0,0,0.55)" d="M2 2H22V22H2V2ZM3 3H21V21H3V3Z"/>
  <path fill="#fff" d="M3 3H21V21H3V3ZM5 5H19V19H5V5Z"/>
  <path fill="#fff" d="M5 3C4.44772 3 4 3.44772 4 4V4C4 4.55228 4.44772 5 5 5H5C5.55228 5 6 4.55228 6 4V4C6 3.44772 5.55228 3 5 3H5Z"/>
  <path fill="#fff" d="M19 3C18.4477 3 18 3.44772 18 4V4C18 4.55228 18.4477 5 19 5H19C19.5523 5 20 4.55228 20 4V4C20 3.44772 19.5523 3 19 3H19Z"/>
  <path fill="#fff" d="M3 19C3 18.4477 3.44772 18 4 18V18C4.55228 18 5 18.4477 5 19H5C5.55228 19 6 19.4477 6 20V20C6 20.5523 5.55228 21 5 21H5C4.44772 21 4 20.5523 4 20V20C4 19.4477 3.44772 19 3 19H3Z"/>
  <path fill="#fff" d="M19 19C18.4477 19 18 18.4477 18 18V18C18 17.4477 18.4477 17 19 17H19C19.5523 17 20 17.4477 20 18V18C20 18.5523 19.5523 19 19 19H19Z"/>

</svg>