<svg xmlns="http://www.w3.org/2000/svg" viewBox="0 0 24 24" width="24" height="24">
  <defs>
    <linearGradient id="bg_grid_rotate" x1="0" y1="0" x2="1" y2="1">
      <stop offset="0%" stop-color="#be185d"/>
      <stop offset="100%" stop-color="#c9417a"/>
    </linearGradient>
  </defs>
  <rect width="24" height="24" rx="4" ry="4" fill="url(#bg_grid_rotate)"/>

  <path fill="rgba(0,0,0,0.55)" d="M2 2H22V22H2V2ZM3 3H21V21H3V3Z"/>
  <path fill="#fff" d="M12,4 C15.866,4 19,7.134 19,11 C19,14.866 15.866,18 12,18 C10.141,18 8.447,17.242 7.172,16.086 L8.607,14.652 C9.524,15.427 10.711,16 12,16 C14.761,16 17,13.761 17,11 C17,8.239 14.761,6 12,6 C9.239,6 7,8.239 7,11 L5,11 L9,11 L9,7 L5,7 L5,11 Z"/>

</svg>