<svg xmlns="http://www.w3.org/2000/svg" viewBox="0 0 24 24" width="24" height="24">
  <defs>
    <linearGradient id="bg_building_profile" x1="0" y1="0" x2="1" y2="1">
      <stop offset="0%" stop-color="#6366f1"/>
      <stop offset="100%" stop-color="#7f81f3"/>
    </linearGradient>
  </defs>
  <rect width="24" height="24" rx="4" ry="4" fill="url(#bg_building_profile)"/>

  
  

  
  

  
  

  <path fill="#fff" d="M4 18l-1-4 5-2-1-4 4-1 4 1-1 4 5 2-1 4-4 1-4-1z"/>
  <path fill="rgba(0,0,0,0.55)" d="M5 17l-0.7-3 4.3-1.7-0.7-3.3 3.3-0.7 3.3 0.7-0.7 3.3 4.3 1.7-0.7 3.3-3.3 0.7-3.3-0.7z"/>
  <path fill="rgba(255,255,255,0.35)" d="M6 16l-0.5-2.5 3.5-1.5-0.5-2.5 2.5-0.5 2.5 0.5-0.5 2.5 3.5 1.5-0.5 2.5-2.5 0.5-2.5-0.5z"/>




</svg>