<svg xmlns="http://www.w3.org/2000/svg" viewBox="0 0 24 24" width="24" height="24">
  <defs>
    <linearGradient id="bg_mountain_contour_generate" x1="0" y1="0" x2="1" y2="1">
      <stop offset="0%" stop-color="#0e7490"/>
      <stop offset="100%" stop-color="#398da3"/>
    </linearGradient>
  </defs>
  <rect width="24" height="24" rx="4" ry="4" fill="url(#bg_mountain_contour_generate)"/>

  <path fill="#fff" d="M12 3c-2.21 0-4 1.79-4 4s1.79 4 4 4 4-1.79 4-4-1.79-4-4-4zm0 6c-1.1 0-2-.9-2-2s.9-2 2-2 2 .9 2 2-.9 2-2 2z"/>
  <path fill="#fff" d="M5 14c-.83 0-1.5.67-1.5 1.5S4.17 17 5 17s1.5-.67 1.5-1.5S5.83 14 5 14zm0 2c-.28 0-.5-.22-.5-.5s.22-.5.5-.5.5.22.5.5-.22.5-.5.5z"/>
  <path fill="#fff" d="M19 14c-.83 0-1.5.67-1.5 1.5S18.17 17 19 17s1.5-.67 1.5-1.5S19.83 14 19 14zm0 2c-.28 0-.5-.22-.5-.5s.22-.5.5-.5.5.22.5.5-.22.5-.5.5z"/>
  <path fill="rgba(0,0,0,0.55)" d="M12 17c-3.87 0-7 3.13-7 7h14c0-3.87-3.13-7-7-7zm0 5c-1.1 0-2-.9-2-2s.9-2 2-2 2 .9 2 2-.9 2-2 2z"/>

</svg>