<svg xmlns="http://www.w3.org/2000/svg" viewBox="0 0 24 24" width="24" height="24">
  <defs>
    <linearGradient id="bg_str_to_grid" x1="0" y1="0" x2="1" y2="1">
      <stop offset="0%" stop-color="#7c3aed"/>
      <stop offset="100%" stop-color="#935df0"/>
    </linearGradient>
  </defs>
  <rect width="24" height="24" rx="4" ry="4" fill="url(#bg_str_to_grid)"/>

  <path fill="#fff" d="M3 12h5v-1H3v1zM3 13h5v-1H3v1zM3 14h5v-1H3v1z"/>
  <path fill="#fff" d="M16 10h5v-1h-5v1zM16 11h5v-1h-5v1zM16 12h5v-1h-5v1zM16 13h5v-1h-5v1zM16 14h5v-1h-5v1z"/>
  <path fill="rgba(0,0,0,0.55)" d="M8 12h8v-1H8v1zM8 13h8v-1H8v1zM8 14h8v-1H8v1z"/>
  <path fill="#fff" d="M11 4H6v5h1V5h4V4z"/>
  <path fill="#fff" d="M18 15h-5v5h-1v-4h-4v-1h4v-1h1v1h5v-5z"/>

</svg>