<svg xmlns="http://www.w3.org/2000/svg" viewBox="0 0 24 24" width="24" height="24">
  <defs>
    <linearGradient id="bg_rule_indoor_anomaly" x1="0" y1="0" x2="1" y2="1">
      <stop offset="0%" stop-color="#c2410c"/>
      <stop offset="100%" stop-color="#cc6337"/>
    </linearGradient>
  </defs>
  <rect width="24" height="24" rx="4" ry="4" fill="url(#bg_rule_indoor_anomaly)"/>

  <path fill="rgba(0,0,0,0.55)" d="M3 3h18v18H3z"/>
  <path fill="#fff" d="M12 5c-2.5 0-4.5 2-4.5 4.5v5c0 2.5 2 4.5 4.5 4.5s4.5-2 4.5-4.5v-5c0-2.5-2-4.5-4.5-4.5zm0 1c1.9 0 3.5 1.6 3.5 3.5v5c0 1.9-1.6 3.5-3.5 3.5s-3.5-1.6-3.5-3.5v-5c0-1.9 1.6-3.5 3.5-3.5z"/>
  <path fill="rgba(255,255,255,0.35)" d="M12 6c1.38 0 2.5 1.12 2.5 2.5v5c0 1.38-1.12 2.5-2.5 2.5s-2.5-1.12-2.5-2.5v-5c0-1.38 1.12-2.5 2.5-2.5z"/>

</svg>