<svg xmlns="http://www.w3.org/2000/svg" viewBox="0 0 24 24" width="24" height="24">
  <defs>
    <linearGradient id="bg_str_to_num_list" x1="0" y1="0" x2="1" y2="1">
      <stop offset="0%" stop-color="#7c3aed"/>
      <stop offset="100%" stop-color="#935df0"/>
    </linearGradient>
  </defs>
  <rect width="24" height="24" rx="4" ry="4" fill="url(#bg_str_to_num_list)"/>

  <path fill="#fff" d="M3 12h5v-1h-5v1zm0 3h8v-1h-8v1zm0-6h8v-1h-8v1zm11 1h-2v-1h2v1zm0 3h-2v-1h2v1zm0-6h-2v-1h2v1z"/>
  <path fill="rgba(0,0,0,0.55)" d="M14 11h-1v-1h1v1zm0 3h-1v-1h1v1zm0-6h-1v-1h1v1z"/>
  <path fill="#fff" d="M16 11h5v-1h-5v1zm0 3h5v-1h-5v1zm0-6h5v-1h-5v1z"/>
  <path fill="rgba(0,0,0,0.55)" d="M21 12.5l-2.5 1.5v-1l1.5-.9v-.2l-1.5-.9v-1l2.5 1.5z"/>
  <path fill="#fff" d="M9 12h6v-1h-6v1z"/>

</svg>