<svg xmlns="http://www.w3.org/2000/svg" viewBox="0 0 24 24" width="24" height="24">
  <defs>
    <linearGradient id="bg_house_footprint" x1="0" y1="0" x2="1" y2="1">
      <stop offset="0%" stop-color="#0f766e"/>
      <stop offset="100%" stop-color="#14b8a6"/>
    </linearGradient>
  </defs>
  <rect width="24" height="24" rx="4" ry="4" fill="url(#bg_house_footprint)"/>
  <!-- JSON 花括号 -->
  <path fill="#fff" d="M3.2 6.2c-.55 0-.95.38-.95.92v1.9c0 .38-.18.7-.45.9.27.2.45.52.45.9v1.9c0 .54.4.92.95.92h.75v-.95h-.28c-.28 0-.47-.2-.47-.47v-1.75c0-.48-.18-.92-.52-1.22.34-.3.52-.74.52-1.22V7.12c0-.27.19-.47.47-.47h.28V5.2H3.2z"/>
  <path fill="#fff" d="M5.3 5.2v.95h.28c.28 0 .47.2.47.47v1.75c0 .48.18.92.52 1.22-.34.3-.52.74-.52 1.22v1.75c0 .27-.19.47-.47.47H5.3v.95h.75c.55 0 .95-.38.95-.92v-1.9c0-.38.18-.7.45-.9-.27-.2-.45-.52-.45-.9V7.12c0-.54-.4-.92-.95-.92H5.3z"/>
  <!-- 箭头：JSON → 底面图 -->
  <path fill="#fff" d="M6.8 11.2h2.2l-.9-.9.65-.65 2.15 2.15-2.15 2.15-.65-.65.9-.9H6.8z"/>
  <!-- 白底画布 -->
  <rect x="10.5" y="6" width="11" height="12" rx="1.2" fill="#fff"/>
  <!-- 黑色 T 形底面剪影 -->
  <path fill="#111" d="M11.5 7.5h9v2.6h-9zM13.8 10.1h4.4v5.9h-4.4z"/>
  <!-- 地面接触线 -->
  <path stroke="#0f766e" stroke-width=".9" stroke-linecap="round" d="M11 18.8h10" opacity=".55"/>
</svg>
