<svg xmlns="http://www.w3.org/2000/svg" viewBox="0 0 24 24" width="24" height="24">
  <defs>
    <linearGradient id="bg_island_poisson_gen" x1="0" y1="0" x2="1" y2="1">
      <stop offset="0%" stop-color="#0f766e"/>
      <stop offset="100%" stop-color="#3a8e88"/>
    </linearGradient>
  </defs>
  <rect width="24" height="24" rx="4" ry="4" fill="url(#bg_island_poisson_gen)"/>

  <path fill="rgba(0,0,0,0.55)" d="M12,2 C6.48,2 2,6.48 2,12 C2,17.52 6.48,22 12,22 C17.52,22 22,17.52 22,12 C22,6.48 17.52,2 12,2 Z M12,4 C16.41,4 20,7.59 20,12 C20,16.41 16.41,20 12,20 C7.59,20 4,16.41 4,12 C4,7.59 7.59,4 12,4 Z"/>
  <ellipse fill="#fff" cx="7" cy="10" rx="1.5" ry="1"/>
  <ellipse fill="#fff" cx="17" cy="15" rx="2" ry="1.5"/>
  <ellipse fill="#fff" cx="13" cy="8" rx="1" ry="0.75"/>
  <ellipse fill="#fff" cx="9" cy="16" rx="1" ry="0.75"/>
  <ellipse fill="#fff" cx="17" cy="9" rx="1.5" ry="1"/>

</svg>