<svg xmlns="http://www.w3.org/2000/svg" viewBox="0 0 24 24" width="24" height="24">
  <defs>
    <linearGradient id="bg_furniture_list_to_namelist" x1="0" y1="0" x2="1" y2="1">
      <stop offset="0%" stop-color="#16a34a"/>
      <stop offset="100%" stop-color="#3fb36a"/>
    </linearGradient>
  </defs>
  <rect width="24" height="24" rx="4" ry="4" fill="url(#bg_furniture_list_to_namelist)"/>

  <rect x="3" y="4" width="6" height="16" rx="1" fill="#fff" />
  <path d="M4,6H8V8H4V6M4,10H8v2H4V10M4,14H8v2H4V14M4,18H8v2H4V18Z" fill="rgba(0,0,0,0.55)" />
  <path d="M10.59,12.59L12,14L15,11L12,8L10.59,9.41L12.17,11H9V13H12.17L10.59,12.59Z" fill="#fff" />
  <rect x="15" y="4" width="6" height="4" rx="1" fill="#fff" />
  <rect x="15" y="10" width="6" height="4" rx="1" fill="#fff" />
  <rect x="15" y="16" width="6" height="4" rx="1" fill="#fff" />
  <path d="M16,5H20V7H16V5M16,11H20v2H16V11M16,17H20v2H16V17Z" fill="rgba(0,0,0,0.55)" />

</svg>