<svg xmlns="http://www.w3.org/2000/svg" viewBox="0 0 24 24" width="24" height="24">
  <defs>
    <linearGradient id="bg_rts_base_shape_gen" x1="0" y1="0" x2="1" y2="1">
      <stop offset="0%" stop-color="#7c3aed"/>
      <stop offset="100%" stop-color="#935df0"/>
    </linearGradient>
  </defs>
  <rect width="24" height="24" rx="4" ry="4" fill="url(#bg_rts_base_shape_gen)"/>

  <path fill="#fff" d="M12,3 C7.5,3 4,6.5 4,11 C4,15.5 7.5,19 12,19 C16.5,19 20,15.5 20,11 C20,6.5 16.5,3 12,3 Z M12,17 C9,17 6.5,14.5 6.5,11 C6.5,7.5 9,5 12,5 C15,5 17.5,7.5 17.5,11 C17.5,14.5 15,17 12,17 Z"/>
  <rect x="3" y="3" width="18" height="18" rx="2" fill="rgba(0,0,0,0.55)" opacity="0.2"/>

</svg>