<svg xmlns="http://www.w3.org/2000/svg" viewBox="0 0 24 24" width="24" height="24">
  <defs>
    <linearGradient id="bg_furniture_filler" x1="0" y1="0" x2="1" y2="1">
      <stop offset="0%" stop-color="#16a34a"/>
      <stop offset="100%" stop-color="#3fb36a"/>
    </linearGradient>
  </defs>
  <rect width="24" height="24" rx="4" ry="4" fill="url(#bg_furniture_filler)"/>

  <path fill="#fff" d="M3 3h18v18H3z"/>
  <rect x="5" y="5" width="3" height="3" fill="rgba(0,0,0,0.55)"/>
  <rect x="16" y="5" width="3" height="3" fill="rgba(0,0,0,0.55)"/>
  <rect x="5" y="16" width="3" height="3" fill="rgba(0,0,0,0.55)"/>
  <rect x="16" y="16" width="3" height="3" fill="rgba(0,0,0,0.55)"/>
  <path d="M12 9h-1.5v-2a.5.5 0 0 0-1 0v2H8a.5.5 0 0 0 0 1h1.5v2a.5.5 0 0 0 1 0v-2H12a.5.5 0 0 0 0-1z" fill="#fff"/>
  <path d="M15 12h2a.5.5 0 0 0 0-1h-2V9.5a.5.5 0 0 0-1 0V11h-2a.5.5 0 0 0 0 1h2v1.5a.5.5 0 0 0 1 0V12z" fill="#fff"/>
  <path d="M12 15h1.5v2a.5.5 0 0 0 1 0v-2H16a.5.5 0 0 0 0-1h-1.5v-2a.5.5 0 0 0-1 0v2H12a.5.5 0 0 0 0 1z" fill="#fff"/>
  <path d="M9 12H7a.5.5 0 0 0 0 1h2v1.5a.5.5 0 0 0 1 0V12.999H11a.5.5 0 0 0 0-1H9v-1.5a.5.5 0 0 0-1 0V12z" fill="#fff"/>

</svg>