<svg xmlns="http://www.w3.org/2000/svg" viewBox="0 0 24 24" width="24" height="24">
  <defs>
    <linearGradient id="bg_aw_perlin_noise" x1="0" y1="0" x2="1" y2="1">
      <stop offset="0%" stop-color="#0f766e"/>
      <stop offset="100%" stop-color="#3a8e88"/>
    </linearGradient>
  </defs>
  <rect width="24" height="24" rx="4" ry="4" fill="url(#bg_aw_perlin_noise)"/>

  <path fill="#fff" d="M2 12c1.5 0 3.5-2 5-2s3.5 2 5 2 3.5-2 5-2 3.5 2 5 2v2c-1.5 0-3.5-2-5-2s-3.5 2-5 2-3.5-2-5-2-3.5 2-5 2v-2z"/>
  <path fill="rgba(0,0,0,0.55)" d="M2 8c1.5 0 3.5-2 5-2s3.5 2 5 2 3.5-2 5-2 3.5 2 5 2v2c-1.5 0-3.5-2-5-2s-3.5 2-5 2-3.5-2-5-2-3.5 2-5 2v-2z"/>
  <path fill="rgba(255,255,255,0.35)" d="M2 16c1.5 0 3.5-2 5-2s3.5 2 5 2 3.5-2 5-2 3.5 2 5 2v2c-1.5 0-3.5-2-5-2s-3.5 2-5 2-3.5-2-5-2-3.5 2-5 2v-2z"/>

</svg>