<svg xmlns="http://www.w3.org/2000/svg" viewBox="0 0 24 24" width="24" height="24">
  <defs>
    <linearGradient id="bg_chess_road_jitter" x1="0" y1="0" x2="1" y2="1">
      <stop offset="0%" stop-color="#1d4ed8"/>
      <stop offset="100%" stop-color="#456ddf"/>
    </linearGradient>
  </defs>
  <rect width="24" height="24" rx="4" ry="4" fill="url(#bg_chess_road_jitter)"/>

  <path fill="#fff" d="M3 3h4v4H3V3zM17 3h4v4h-4V3zM3 17h4v4H3v-4zM17 17h4v4h-4v-4z"/>
  <path fill="#fff" d="M3 11h2v2H3v-2zM19 11h2v2h-2v-2zM11 3h2v2h-2V3zM11 19h2v2h-2v-2z"/>
  <path fill="#fff" d="M5 5v2H3.5L5 5zM19 5v2h-1.5L19 5zM5 19v-2H3.5L5 19zM19 19v-2h-1.5L19 19z"/>
  <path fill="#fff" d="M11 5v2h-2v2H9v2h2v2h2v-2h2v-2h-2V7h-2V5zM5 11h2V9h2V7h2v2h2v2h-2v2h-2v-2H7v-2H5zM19 11h-2v2h-2v2h-2v-2h-2v-2h2V9h2V7h2v2h2zM11 19h-2v-2H7v-2h2v-2h2v2h2v2h-2v2z"/>

</svg>